<svg xmlns="http://www.w3.org/2000/svg" viewBox="0 0 513.8 415.73"><defs><style>.cls-1{fill:#fff;}</style></defs><title>Asset 1</title><g id="Layer_2" data-name="Layer 2"><g id="Vector"><path class="cls-1" d="M282.7,57.93a4,4,0,0,0,2,2.7c1.1.6,2.4.5,4.1,0a9.17,9.17,0,0,0,5-4.2,19.8,19.8,0,0,0,2.6-10.6c0-4.9-1-8.6-3-11a4.61,4.61,0,0,0-4.8-1.9,6.31,6.31,0,0,0-2.9,1.7,23.56,23.56,0,0,0-3.4,5.6c.1,5.5.2,7.8.2,12.6A47.43,47.43,0,0,0,282.7,57.93Z"/><path class="cls-1" d="M418,209a12.66,12.66,0,0,0-6,1.4,6,6,0,0,0-3.1,3.6H426C426.1,210.73,423.4,209,418,209Z"/><path class="cls-1" d="M388.3,79.53a9,9,0,0,0,4.6,1,8.5,8.5,0,0,0,5.2-1.3,4.07,4.07,0,0,0,1.8-3.2c-4.7,0-9.1-.1-13.4-.3v1A3.12,3.12,0,0,0,388.3,79.53Z"/><path class="cls-1" d="M396.4,44.23a17.23,17.23,0,0,0,5.6,2.6,55.31,55.31,0,0,0,8.6,1.6,97.86,97.86,0,0,0,11.3.5,87.18,87.18,0,0,0,10.7-.6,49.66,49.66,0,0,0,8.2-1.6,17.77,17.77,0,0,0,5.3-2.3,3.66,3.66,0,0,0,1.9-2.9,4.79,4.79,0,0,0-2-3.6,16.54,16.54,0,0,0-5.5-2.9,47.76,47.76,0,0,0-8.6-2,76.81,76.81,0,0,0-11.1-.7,86.66,86.66,0,0,0-10.6.6,54,54,0,0,0-8.4,1.7,15.68,15.68,0,0,0-5.5,2.7,4.28,4.28,0,0,0-2,3.3A4.46,4.46,0,0,0,396.4,44.23Z"/><path class="cls-1" d="M61.9,50.93a7.43,7.43,0,0,0,5.5-2.8c1.4-1.7,2.1-4.8,2.1-9.2,0-5.5-1.3-9.8-3.8-12.5a6.38,6.38,0,0,0-6.4-2.1A8.78,8.78,0,0,0,55.6,26a10.18,10.18,0,0,0-3,4.1,16.3,16.3,0,0,0-1.1,6.6,18.57,18.57,0,0,0,3,10.5C56.5,50,58.9,51.23,61.9,50.93Z"/><path class="cls-1" d="M227,80.43a6.19,6.19,0,0,0,6.1-1.9c1.6-1.7,2.3-4.9,2.3-9.5,0-5.7-1.2-12.3-3.8-17-1.8-3.2-4-4.6-6.9-5a8.21,8.21,0,0,0-4.3.6q-2.1.9-3.6,4.2a23.26,23.26,0,0,0-1.4,8.3,26.28,26.28,0,0,0,3.3,13.1C220.7,77.33,223.6,79.83,227,80.43Z"/><path class="cls-1" d="M294.5,227.83h0c-.1-.1-.2,0-.3,0Z"/><polygon class="cls-1" points="142.1 230.23 161.6 230.23 151.8 202.43 142.1 230.23"/><path class="cls-1" d="M300.1,220.83a3.28,3.28,0,0,0,.9-2.2V217l-8.4.5c-4.7.3-7,1.4-7,3.2,0,.8.6,1.5,1.7,2a11.51,11.51,0,0,0,4.6.8,22.82,22.82,0,0,0,2.7-.2v-2.5Z"/><path class="cls-1" d="M33.4,323.13a3.77,3.77,0,0,0,2.1.7,3.33,3.33,0,0,0,2.5-.9,3.24,3.24,0,0,0,.9-2.4,2.63,2.63,0,0,0-.8-2,3.17,3.17,0,0,0-2.3-.7,3.51,3.51,0,0,0-2.3.7,2.32,2.32,0,0,0-.9,1.9v1.1A1.62,1.62,0,0,0,33.4,323.13Z"/><path class="cls-1" d="M42.6,353.73a3.74,3.74,0,0,0-2.5.8,2.79,2.79,0,0,0-.9,2.2c0,2,1.2,3,3.5,3s3.3-1,3.3-3.1C45.9,354.73,44.8,353.73,42.6,353.73Z"/><path class="cls-1" d="M286.1,353.53a2.88,2.88,0,0,0-1.9.6,1.86,1.86,0,0,0-.7,1.6c0,1.5.9,2.2,2.6,2.2a2.09,2.09,0,0,0,2.4-2.3Q288.5,353.53,286.1,353.53Z"/><path class="cls-1" d="M134.6,329.53a1.05,1.05,0,0,0,.5.9,3.51,3.51,0,0,0,3.6-.2,2.09,2.09,0,0,0,.8-1.6v-.8l-2.7.2C135.3,328.23,134.6,328.73,134.6,329.53Z"/><path class="cls-1" d="M53.2,317.43a3.08,3.08,0,0,0-1.9.6,2.75,2.75,0,0,0-1,1.6h5.5C55.8,318.23,54.9,317.43,53.2,317.43Z"/><path class="cls-1" d="M392.5,357.23a.75.75,0,0,0,.4.7,1.8,1.8,0,0,0,1.1.3,2.77,2.77,0,0,0,1.6-.5,1.43,1.43,0,0,0,.6-1.2V356l-2,.2C393,356.23,392.5,356.63,392.5,357.23Z"/><path class="cls-1" d="M410.4,357.23a.75.75,0,0,0,.4.7,1.8,1.8,0,0,0,1.1.3,2.77,2.77,0,0,0,1.6-.5,1.43,1.43,0,0,0,.6-1.2V356l-2,.2C410.9,356.23,410.4,356.63,410.4,357.23Z"/><path class="cls-1" d="M360,357.23a.75.75,0,0,0,.4.7,1.8,1.8,0,0,0,1.1.3,2.77,2.77,0,0,0,1.6-.5,1.43,1.43,0,0,0,.6-1.2V356l-2,.2C360.5,356.23,360,356.63,360,357.23Z"/><path class="cls-1" d="M281.8,324.23a3.08,3.08,0,0,0-1.9.6,2.75,2.75,0,0,0-1,1.6h5.5C284.4,325,283.6,324.23,281.8,324.23Z"/><path class="cls-1" d="M458,353.33a2.39,2.39,0,0,0-1.4.5,1.85,1.85,0,0,0-.7,1.2h4C459.9,353.83,459.3,353.33,458,353.33Z"/><path class="cls-1" d="M383.1,353.33a2.39,2.39,0,0,0-1.4.5,1.85,1.85,0,0,0-.7,1.2h4C385,353.83,384.3,353.33,383.1,353.33Z"/><path class="cls-1" d="M22.5,301.33v70.5H507.3v-70.5Zm306.9,16H334v15.5h-4.6Zm-52.9,6.3a9,9,0,0,1,5.3-1.5,8.36,8.36,0,0,1,5.1,1.4,4.33,4.33,0,0,1,1.8,3.7v1.4h-9.8c.2,1.5,1.5,2.3,4.1,2.3a11.91,11.91,0,0,0,4.4-.8v2.3a16.19,16.19,0,0,1-5.4.8,9.84,9.84,0,0,1-5.6-1.4,4.61,4.61,0,0,1-2-3.9A4.7,4.7,0,0,1,276.5,323.63Zm-14.5-1.3,2.6,6.5a5.37,5.37,0,0,1,.5,1.9h.1a8.3,8.3,0,0,1,.5-1.8l2.7-6.5h4.8l-5.6,10.5h-5.3l-5.3-10.5h5Zm-33.4,7.6a10.1,10.1,0,0,0,2.3.7,18.31,18.31,0,0,0,2.1.2,8.44,8.44,0,0,0,1.9-.2.84.84,0,0,0,.7-.7.55.55,0,0,0-.3-.5,5.94,5.94,0,0,0-.8-.4c-.3-.1-.7-.2-1.1-.3l-1.2-.3c-.6-.2-1.1-.3-1.6-.5a5.43,5.43,0,0,1-1.1-.6,2.7,2.7,0,0,1-.7-.8,2,2,0,0,1-.2-1.1,2.46,2.46,0,0,1,.5-1.5,4,4,0,0,1,1.5-1,6.46,6.46,0,0,1,2.1-.6,19.49,19.49,0,0,1,2.5-.2,13.41,13.41,0,0,1,2,.1l2,.3V325a10.55,10.55,0,0,0-1.9-.5,13.56,13.56,0,0,0-2-.2,2.77,2.77,0,0,0-.9.1,1.45,1.45,0,0,0-.7.2,2.19,2.19,0,0,0-.5.3.52.52,0,0,0-.2.4.55.55,0,0,0,.3.5,4.35,4.35,0,0,0,.7.4l.9.3a3.55,3.55,0,0,0,1,.2c.6.2,1.2.3,1.7.5s.9.4,1.3.6a2,2,0,0,1,.8.8,2,2,0,0,1,.3,1.1,2.27,2.27,0,0,1-.6,1.6,5.82,5.82,0,0,1-1.5,1.1,7.09,7.09,0,0,1-2.2.6,21.12,21.12,0,0,1-2.6.2,21.61,21.61,0,0,1-4.6-.5v-2.8ZM64.1,316.83a9,9,0,0,1,5.3-1.5,8.36,8.36,0,0,1,5.1,1.4,4.33,4.33,0,0,1,1.8,3.7v1.4H66.5c.2,1.5,1.5,2.3,4.1,2.3a11.91,11.91,0,0,0,4.4-.8v2.3a16.19,16.19,0,0,1-5.4.8A9.84,9.84,0,0,1,64,325a4.61,4.61,0,0,1-2-3.9A4.51,4.51,0,0,1,64.1,316.83Zm-16.2,0a9,9,0,0,1,5.3-1.5,8.36,8.36,0,0,1,5.1,1.4,4.33,4.33,0,0,1,1.8,3.7v1.4H50.3c.2,1.5,1.5,2.3,4.1,2.3a11.91,11.91,0,0,0,4.4-.8v2.3a16.19,16.19,0,0,1-5.4.8,9.84,9.84,0,0,1-5.6-1.4,4.61,4.61,0,0,1-2-3.9A4.51,4.51,0,0,1,47.9,316.83ZM28,310.53h4.6v6.6h.1a6.42,6.42,0,0,1,4.9-1.8,6.91,6.91,0,0,1,4.5,1.4,4.64,4.64,0,0,1,1.6,3.8,5.17,5.17,0,0,1-1.8,4.2,7.58,7.58,0,0,1-4.9,1.6,5.68,5.68,0,0,1-4.2-1.5h-.1V326H28.1v-15.5ZM31.8,344H27l-4.2-10.5h4.7l2.1,6.8a3.73,3.73,0,0,1,.2,1.2h0a2.13,2.13,0,0,1,.3-1.2l2.6-6.8h4.4l2.3,6.8a7.07,7.07,0,0,1,.2,1.2h.1a5,5,0,0,1,.2-1.2l1.9-6.8h4.3L41.8,344H36.9l-2.1-6.2a5.85,5.85,0,0,1-.2-1.3h-.1a13,13,0,0,1-.3,1.3Zm16.7,16.7a10.66,10.66,0,0,1-6,1.5,10.1,10.1,0,0,1-5.9-1.5,4.89,4.89,0,0,1,.1-8.1,10.66,10.66,0,0,1,6-1.5,10.31,10.31,0,0,1,5.9,1.5,4.59,4.59,0,0,1,2.1,3.9A5,5,0,0,1,48.5,360.73ZM53,344H48.4v-15.5H53v6.6h.1a6,6,0,0,1,4.6-1.8c3.4,0,5.1,1.4,5.1,4.3V344H58.2v-6a2.09,2.09,0,0,0-2.4-2.3,3.17,3.17,0,0,0-2,.6,2.09,2.09,0,0,0-.8,1.6Zm15.1,18H63.5v-6a2.09,2.09,0,0,0-2.4-2.3,3.17,3.17,0,0,0-2,.6,2.09,2.09,0,0,0-.8,1.6v6H53.7v-15.5h4.6V353h.1a6,6,0,0,1,4.6-1.8c3.4,0,5.1,1.4,5.1,4.3Zm6.5-17.2a7.2,7.2,0,0,1-6.6,4.1,11.43,11.43,0,0,1-2.8-.3V346a4.48,4.48,0,0,0,2,.4,2.68,2.68,0,0,0,2.5-1.2l.8-1.3-6.1-10.5h5.1l2.8,6.4a5.73,5.73,0,0,1,.4,1.4h.1a4.76,4.76,0,0,1,.5-1.4l2.8-6.4h4.6Zm41.9-13.6a5.82,5.82,0,0,1-1.5,1.1,7.09,7.09,0,0,1-2.2.6,21.12,21.12,0,0,1-2.6.2,21.61,21.61,0,0,1-4.6-.5V330a10.1,10.1,0,0,0,2.3.7,18.31,18.31,0,0,0,2.1.2,8.44,8.44,0,0,0,1.9-.2.84.84,0,0,0,.7-.7.55.55,0,0,0-.3-.5,5.94,5.94,0,0,0-.8-.4c-.3-.1-.7-.2-1.1-.3l-1.2-.3c-.6-.2-1.1-.3-1.6-.5a5.43,5.43,0,0,1-1.1-.6,2.7,2.7,0,0,1-.7-.8,2,2,0,0,1-.2-1.1,2.46,2.46,0,0,1,.5-1.5,4,4,0,0,1,1.5-1,6.46,6.46,0,0,1,2.1-.6,19.49,19.49,0,0,1,2.5-.2,13.41,13.41,0,0,1,2,.1l2,.3v2.5a10.55,10.55,0,0,0-1.9-.5,13.56,13.56,0,0,0-2-.2,2.77,2.77,0,0,0-.9.1,1.44,1.44,0,0,0-.7.2,2.19,2.19,0,0,0-.5.3.52.52,0,0,0-.2.4.55.55,0,0,0,.3.5,4.35,4.35,0,0,0,.7.4l.9.3a3.55,3.55,0,0,0,1,.2c.6.2,1.2.3,1.7.5s.9.4,1.3.6a2,2,0,0,1,.8.8,2,2,0,0,1,.3,1.1A1.74,1.74,0,0,1,116.5,331.23Zm12.3-6.5h-3.4v4.2c0,1.1.6,1.6,1.9,1.6a4,4,0,0,0,1.5-.3v2.4a8.28,8.28,0,0,1-3.1.4c-3.3,0-4.9-1.2-4.9-3.6v-4.8h-2.4v-2.4h2.4v-2.3l4.6-.9v3.2h3.4Zm15.1,8.1h-4.4v-1.5h-.1a6.66,6.66,0,0,1-7.9.9,2.77,2.77,0,0,1-1.3-2.3c0-2,1.7-3.2,5.2-3.5l4.1-.4c0-1.1-.9-1.7-2.7-1.7a12.63,12.63,0,0,0-5.1,1.1V323a20.73,20.73,0,0,1,2.6-.6,17.09,17.09,0,0,1,3.1-.3c4.3,0,6.4,1.5,6.4,4.5v6.2Zm13.4-7.6a5.82,5.82,0,0,0-1.9-.3,3.65,3.65,0,0,0-2.4.8,2.52,2.52,0,0,0-.8,2.1v5h-4.6v-10.5h4.6v1.9h.1a4.11,4.11,0,0,1,4-2.1,3.11,3.11,0,0,1,1.1.1v3Zm11.3-.5h-3.4v4.2c0,1.1.6,1.6,1.9,1.6a4,4,0,0,0,1.5-.3v2.4a8.28,8.28,0,0,1-3.1.4c-3.3,0-4.9-1.2-4.9-3.6v-4.8h-2.4v-2.4h2.4v-2.3l4.6-.9v3.2h3.4Zm12.5,6.5a5.82,5.82,0,0,1-1.5,1.1,7.09,7.09,0,0,1-2.2.6,21.12,21.12,0,0,1-2.6.2,21.61,21.61,0,0,1-4.6-.5V330a10.1,10.1,0,0,0,2.3.7,18.31,18.31,0,0,0,2.1.2,8.44,8.44,0,0,0,1.9-.2.84.84,0,0,0,.7-.7.55.55,0,0,0-.3-.5,5.94,5.94,0,0,0-.8-.4c-.3-.1-.7-.2-1.1-.3l-1.2-.3c-.6-.2-1.1-.3-1.6-.5a5.43,5.43,0,0,1-1.1-.6,2.7,2.7,0,0,1-.7-.8,2,2,0,0,1-.2-1.1,2.46,2.46,0,0,1,.5-1.5,4,4,0,0,1,1.5-1,6.46,6.46,0,0,1,2.1-.6,19.49,19.49,0,0,1,2.5-.2,13.41,13.41,0,0,1,2,.1l2,.3v2.5a10.55,10.55,0,0,0-1.9-.5,13.56,13.56,0,0,0-2-.2,2.77,2.77,0,0,0-.9.1,1.44,1.44,0,0,0-.7.2,2.19,2.19,0,0,0-.5.3.52.52,0,0,0-.2.4.55.55,0,0,0,.3.5,4.35,4.35,0,0,0,.7.4l.9.3a3.55,3.55,0,0,0,1,.2c.6.2,1.2.3,1.7.5s.9.4,1.3.6a2,2,0,0,1,.8.8,2,2,0,0,1,.3,1.1A1.74,1.74,0,0,1,181.1,331.23Zm34.3-1.9a7.41,7.41,0,0,1-4.9,1.6,5.36,5.36,0,0,1-2.4-.5,1.81,1.81,0,0,1-1-1.4H207a3.84,3.84,0,0,1-3.7,2,5.18,5.18,0,0,1-3.3-1,3.21,3.21,0,0,1-1.2-2.8,4.86,4.86,0,0,1,1.7-3.8,5.92,5.92,0,0,1,4.1-1.5q2.25,0,2.7,1.2h.1l.1-1h3.3c-.4,2.9-.7,4.8-.7,5.7s.4,1.4,1.1,1.4a2.26,2.26,0,0,0,1.9-1.1,4.88,4.88,0,0,0,.8-2.8,4.47,4.47,0,0,0-2.2-3.9,10.79,10.79,0,0,0-6.1-1.5,12,12,0,0,0-7,2,6,6,0,0,0-2.8,5,5.06,5.06,0,0,0,2.5,4.5,12.23,12.23,0,0,0,6.8,1.6,18.89,18.89,0,0,0,6-.9v2a23.12,23.12,0,0,1-6.4.7,15.74,15.74,0,0,1-8.8-2.2,6.51,6.51,0,0,1-3.4-5.8,7.52,7.52,0,0,1,3.6-6.3c2.4-1.7,5.5-2.5,9.3-2.5a16.19,16.19,0,0,1,8.5,2,5.94,5.94,0,0,1,3.3,5.2A4.35,4.35,0,0,1,215.4,329.33Zm12.6,29.4a7.94,7.94,0,0,1-4.4,1.1,7.58,7.58,0,0,1-4.3-1.1,3.48,3.48,0,0,1-1.6-2.9,3.31,3.31,0,0,1,1.6-3,8.18,8.18,0,0,1,4.4-1.1,7.58,7.58,0,0,1,4.3,1.1,3.48,3.48,0,0,1,1.6,2.9A3.54,3.54,0,0,1,228,358.73Zm14.3.9h-3.4v-1.2h-.1a4.44,4.44,0,0,1-3.4,1.4c-2.5,0-3.8-1.1-3.8-3.2V352H235v4.4c0,1.1.6,1.6,1.8,1.6a2.41,2.41,0,0,0,1.5-.4,1.35,1.35,0,0,0,.5-1.2V352h3.4v7.6Zm-.4-31.9a4.68,4.68,0,0,1,2.2-4.1,9.18,9.18,0,0,1,5.3-1.5,8.36,8.36,0,0,1,5.1,1.4,4.33,4.33,0,0,1,1.8,3.7v1.4h-9.8c.2,1.5,1.5,2.3,4.1,2.3a11.91,11.91,0,0,0,4.4-.8v2.3a16.19,16.19,0,0,1-5.4.8,9.84,9.84,0,0,1-5.6-1.4A4.7,4.7,0,0,1,241.9,327.73Zm9.9,25.9h-2.5v3.1c0,.8.5,1.2,1.4,1.2a4.25,4.25,0,0,0,1.1-.2v1.8a6.71,6.71,0,0,1-2.3.3c-2.4,0-3.6-.9-3.6-2.6v-3.5h-1.8v-1.8h1.8v-1.7l3.4-.7v2.3h2.5Zm12.6,6H261v-1.1h0a4.55,4.55,0,0,1-3.4,1.2,4.83,4.83,0,0,1-3.3-1,3.57,3.57,0,0,1-1.3-2.8,4,4,0,0,1,1.4-3.1,5.22,5.22,0,0,1,3.6-1.2,3.78,3.78,0,0,1,3,1.1h0v-4.6h3.4v11.5Zm12.5-.9a7.94,7.94,0,0,1-4.4,1.1,7.58,7.58,0,0,1-4.3-1.1,3.48,3.48,0,0,1-1.6-2.9,3.31,3.31,0,0,1,1.6-3,8.18,8.18,0,0,1,4.4-1.1,7.58,7.58,0,0,1,4.3,1.1,3.48,3.48,0,0,1,1.6,2.9A3.32,3.32,0,0,1,276.9,358.73Zm13.5,0a7.94,7.94,0,0,1-4.4,1.1,7.58,7.58,0,0,1-4.3-1.1,3.48,3.48,0,0,1-1.6-2.9,3.31,3.31,0,0,1,1.6-3,8.18,8.18,0,0,1,4.4-1.1,7.58,7.58,0,0,1,4.3,1.1,3.48,3.48,0,0,1,1.6,2.9A3.54,3.54,0,0,1,290.4,358.73Zm11-4.7a3.18,3.18,0,0,0-1.4-.2,2.35,2.35,0,0,0-1.7.6,2,2,0,0,0-.6,1.5v3.7h-3.4v-7.7h3.4v1.4h0a3,3,0,0,1,2.9-1.6,1.72,1.72,0,0,1,.8.1V354Zm4.6-21.2h-4.6V327c0-1.6-.8-2.4-2.5-2.4a3.17,3.17,0,0,0-2,.6,2.09,2.09,0,0,0-.8,1.6v6h-4.6v-10.5h4.6V324h.1a5.91,5.91,0,0,1,4.8-1.9c3.3,0,5,1.4,5,4.3Zm11.4,21.3a4.75,4.75,0,0,0-2.4-.6,3.92,3.92,0,0,0-2.3.6,1.85,1.85,0,0,0-.9,1.7,1.94,1.94,0,0,0,.8,1.6,3.59,3.59,0,0,0,2.2.6,5.73,5.73,0,0,0,2.5-.6v1.9a9.54,9.54,0,0,1-3.3.5,7.12,7.12,0,0,1-4.1-1.1,3.31,3.31,0,0,1-1.6-2.8,3.68,3.68,0,0,1,1.7-3.1,7.51,7.51,0,0,1,4.5-1.1,6.61,6.61,0,0,1,2.8.4v2Zm-.8-29.4v-2.4h2.5V321a3.36,3.36,0,0,1,1.7-2.9,8.31,8.31,0,0,1,4.5-1.1,14,14,0,0,1,2.3.2v2.5a5.24,5.24,0,0,0-1.7-.2c-1.5,0-2.2.6-2.2,1.7v1.1h3.4v2.4h-3.4v8.1h-4.6v-8.1Zm13.5,34.9h-3.3v-4.4c0-1.1-.6-1.7-1.8-1.7a2.46,2.46,0,0,0-1.5.5,1.43,1.43,0,0,0-.6,1.2v4.4h-3.4v-11.4h3.4V353h0a4.38,4.38,0,0,1,3.4-1.3c2.5,0,3.7,1.1,3.7,3.2v4.7Zm6.1,0h-3.4v-7.7h3.4Zm-.2-9.3a2.9,2.9,0,0,1-1.4.3,2.12,2.12,0,0,1-1.4-.4,1,1,0,0,1-.5-.9c0-.4.2-.6.5-.9s.8-.3,1.4-.3a2.65,2.65,0,0,1,1.4.3.87.87,0,0,1,.5.9A1.1,1.1,0,0,1,336,350.33Zm6.5,9.3h-3.4v-11.4h3.4Zm0-26.8h-4.6v-10.5h4.6Zm-.3-12.6a3.86,3.86,0,0,1-3.8,0,1.38,1.38,0,0,1,0-2.4,3.86,3.86,0,0,1,3.8,0,1.31,1.31,0,0,1,.7,1.2A1.42,1.42,0,0,1,342.2,320.23Zm6.5,39.4h-3.4v-11.4h3.4Zm7.5-34.4a5.82,5.82,0,0,0-1.9-.3,3.65,3.65,0,0,0-2.4.8,2.52,2.52,0,0,0-.8,2.1v5h-4.6v-10.5h4.6v1.9h.1a4.11,4.11,0,0,1,4-2.1,3.11,3.11,0,0,1,1.1.1v3Zm10.6,34.4h-3.2v-1.1h0a3.9,3.9,0,0,1-3.3,1.3,4.4,4.4,0,0,1-2.5-.6,2,2,0,0,1-.9-1.7c0-1.5,1.3-2.4,3.8-2.6l3-.3c0-.8-.7-1.3-2-1.3a9.09,9.09,0,0,0-3.7.8v-1.8a16.66,16.66,0,0,1,1.9-.5,19.89,19.89,0,0,1,2.2-.2c3.1,0,4.7,1.1,4.7,3.3Zm.7-34.9h-3.4v4.2c0,1.1.6,1.6,1.9,1.6a4,4,0,0,0,1.5-.3v2.4a8.28,8.28,0,0,1-3.1.4c-3.3,0-4.9-1.2-4.9-3.6v-4.8h-2.4v-2.4h2.4v-2.3l4.6-.9v3.2h3.4Zm9.2,29.3a3.18,3.18,0,0,0-1.4-.2,2.35,2.35,0,0,0-1.7.6,2,2,0,0,0-.6,1.5v3.7h-3.4v-7.7H373v1.4h0a3,3,0,0,1,2.9-1.6,1.72,1.72,0,0,1,.8.1V354Zm-5.1-16.3a11.43,11.43,0,0,1-2.8-.3v-2.6a4.48,4.48,0,0,0,2,.4,2.68,2.68,0,0,0,2.5-1.2l.8-1.3-6.1-10.5h5.1l2.8,6.4a5.73,5.73,0,0,1,.4,1.4h.1a4.76,4.76,0,0,1,.5-1.4l2.8-6.4h4.6l-6.1,11.3A6.79,6.79,0,0,1,371.6,337.73Zm16.5,18.7h-7.2c.1,1.1,1.1,1.7,3,1.7a7.94,7.94,0,0,0,3.2-.6v1.7a10.86,10.86,0,0,1-4,.6,6.71,6.71,0,0,1-4.1-1,3.65,3.65,0,0,1-1.5-2.9,3.31,3.31,0,0,1,1.6-3,7.13,7.13,0,0,1,3.9-1.1,5.82,5.82,0,0,1,3.7,1,3.23,3.23,0,0,1,1.3,2.7v.9Zm11.2,3.2h-3.2v-1.1h0a3.9,3.9,0,0,1-3.3,1.3,4.4,4.4,0,0,1-2.5-.6,2,2,0,0,1-.9-1.7c0-1.5,1.3-2.4,3.8-2.6l3-.3c0-.8-.7-1.3-2-1.3a9.09,9.09,0,0,0-3.7.8v-1.8a16.66,16.66,0,0,1,1.9-.5,19.89,19.89,0,0,1,2.2-.2c3.1,0,4.7,1.1,4.7,3.3Zm17.9,0H414v-1.1h0a3.9,3.9,0,0,1-3.3,1.3,4.4,4.4,0,0,1-2.5-.6,2,2,0,0,1-.9-1.7c0-1.5,1.3-2.4,3.8-2.6l3-.3c0-.8-.7-1.3-2-1.3a9.09,9.09,0,0,0-3.7.8v-1.8a16.66,16.66,0,0,1,1.9-.5,19.89,19.89,0,0,1,2.2-.2c3.1,0,4.7,1.1,4.7,3.3Zm10-1.2a4.44,4.44,0,0,1-1.1.8,4.19,4.19,0,0,1-1.6.4,11.49,11.49,0,0,1-1.9.1,12.67,12.67,0,0,1-3.4-.4v-1.9a10.92,10.92,0,0,0,1.7.5,10,10,0,0,0,1.6.2,4.63,4.63,0,0,0,1.4-.2c.3-.1.5-.3.5-.5a.52.52,0,0,0-.2-.4,3.33,3.33,0,0,0-.6-.3c-.2-.1-.5-.1-.8-.2s-.6-.1-.8-.2a5.64,5.64,0,0,1-1.2-.4,2.18,2.18,0,0,1-.8-.5,2.65,2.65,0,0,1-.5-.6,1.88,1.88,0,0,1-.2-.8,1.5,1.5,0,0,1,.4-1.1,3.13,3.13,0,0,1,1.1-.8,6.58,6.58,0,0,1,1.5-.4,10.87,10.87,0,0,1,1.8-.1,7.57,7.57,0,0,1,1.5.1c.5.1,1,.1,1.5.2v1.8a5.73,5.73,0,0,0-1.4-.4,7.09,7.09,0,0,0-1.4-.1h-.6a4.33,4.33,0,0,0-.5.1.76.76,0,0,0-.4.2.37.37,0,0,0-.1.3.76.76,0,0,0,.2.4,2.18,2.18,0,0,0,.5.3,6.39,6.39,0,0,0,.7.2c.3.1.5.1.8.2a3.37,3.37,0,0,1,1.2.4,1.93,1.93,0,0,1,.9.5,1.7,1.7,0,0,1,.6.6,1.88,1.88,0,0,1,.2.8A3.37,3.37,0,0,1,427.2,358.43Zm21.2,1.2h-3.6l-1.6-4.5a3,3,0,0,1-.2-1h-.1a3,3,0,0,1-.2,1l-1.7,4.5h-3.5l-3.1-7.7h3.5l1.5,5a6.37,6.37,0,0,1,.2.9h.1a2.39,2.39,0,0,1,.2-.9l1.9-5H445l1.7,5c0,.1.1.4.2.9h.1a2.92,2.92,0,0,1,.2-.9l1.4-5h3.1Zm14.7-3.2h-7.2c.1,1.1,1.1,1.7,3,1.7a7.94,7.94,0,0,0,3.2-.6v1.7a10.86,10.86,0,0,1-4,.6,6.71,6.71,0,0,1-4.1-1,3.65,3.65,0,0,1-1.5-2.9,3.31,3.31,0,0,1,1.6-3,7.13,7.13,0,0,1,3.9-1.1,5.82,5.82,0,0,1,3.7,1,3.23,3.23,0,0,1,1.3,2.7v.9Zm5.4,3.2h-3.4v-11.4h3.4Zm2.8,0v-11.4h3.4v11.4Z"/><path class="cls-1" d="M249.3,324.23a3.08,3.08,0,0,0-1.9.6,2.75,2.75,0,0,0-1,1.6h5.5C251.9,325,251.1,324.23,249.3,324.23Z"/><path class="cls-1" d="M260.5,354a2.77,2.77,0,0,0-1.6-.5,2.61,2.61,0,0,0-1.8.6,2.35,2.35,0,0,0-.6,1.7,2.11,2.11,0,0,0,.6,1.6,2.31,2.31,0,0,0,1.7.5,2.52,2.52,0,0,0,1.7-.6,2,2,0,0,0,.6-1.5v-.6A1.56,1.56,0,0,0,260.5,354Z"/><path class="cls-1" d="M205.2,323.63a2.48,2.48,0,0,0-2.1,1.1,3.49,3.49,0,0,0-.8,2.4,1.75,1.75,0,0,0,.6,1.5,2,2,0,0,0,1.5.5,2.7,2.7,0,0,0,2.2-1,4.07,4.07,0,0,0,.8-2.8,1.9,1.9,0,0,0-.5-1.3A2.86,2.86,0,0,0,205.2,323.63Z"/><path class="cls-1" d="M272.6,353.53a2.88,2.88,0,0,0-1.9.6,1.86,1.86,0,0,0-.7,1.6c0,1.5.9,2.2,2.6,2.2a2.09,2.09,0,0,0,2.4-2.3Q275.15,353.53,272.6,353.53Z"/><path class="cls-1" d="M223.7,353.53a2.88,2.88,0,0,0-1.9.6,2.18,2.18,0,0,0-.7,1.6c0,1.5.9,2.2,2.6,2.2a2.09,2.09,0,0,0,2.4-2.3C226.2,354.23,225.3,353.53,223.7,353.53Z"/><path class="cls-1" d="M69.4,317.43a3.08,3.08,0,0,0-1.9.6,2.75,2.75,0,0,0-1,1.6H72C72,318.23,71.1,317.43,69.4,317.43Z"/><path class="cls-1" d="M508.3,300.33v71.5h5.5v-358H112.7c.2,3.9.5,6.8.5,10.6,2.9.3,4.4.5,7.3.8v2.6c-2.9-.3-4.4-.4-7.3-.7,0,9.2,0,13.8-.1,22.7a9.17,9.17,0,0,0,.8,4.5,2.63,2.63,0,0,0,2.2,1.2,3.6,3.6,0,0,0,2.2-.7,4.83,4.83,0,0,0,1.7-2.2h1.3a12,12,0,0,1-3.4,5.4,7.14,7.14,0,0,1-4.5,1.9,5.06,5.06,0,0,1-3.1-1.2,6.27,6.27,0,0,1-2.2-2.9,15.85,15.85,0,0,1-.7-5.6c.1-9.3.1-14.1.1-23.8l-4.9-.5v-1.3a10.39,10.39,0,0,0,3.8-2.5,15.9,15.9,0,0,0,3.2-5.3c.3-.7.6-1.7,1.1-3.1h-18c.1,1.6.2,3.6.3,5.8a27.15,27.15,0,0,1,.1,2.8c3.2.3,4.9.4,8.1.7v2.8c-3.2-.3-4.8-.5-8.1-.8,0,9.4,0,14.1-.1,23.2q0,4.8.9,6.3a4.78,4.78,0,0,0,3.4,2.1c1.1.1,1.7.2,2.8.3v1.5a114.09,114.09,0,0,1-18.8-3.3v-1.3c.6.1.8.2,1.4.3a4.16,4.16,0,0,0,2.5-.2,2.7,2.7,0,0,0,1.6-1.7,20.1,20.1,0,0,0,.5-4.8c.1-9,.1-13.6.1-22.8-2.5-.2-3.7-.3-6.2-.4v-2.7c2.5.1,3.7.2,6.2.3v-2.4a35.25,35.25,0,0,1,.1-5.7H19.8v5.9c.7-.1,1.4-.1,2.2-.2v1.1l-2.2.3v40.9a9.29,9.29,0,0,0,1.3-.4c1.4-.4,2.1-.7,3.5-1.1a29.29,29.29,0,0,0,7.8-3.5,15.65,15.65,0,0,0,4-4.1,35.31,35.31,0,0,0,3.6-7.3c.5-.1.7-.1,1.2-.2-1.6,5.3-2.5,8.2-3.9,13.4-5.7,2.2-11.6,4.4-17.5,6.2v307.1h1.7v-71.5Zm-316.6-42.2L123.1,223l17.1-44.9h23.2l28.2,73.8v6.2Zm-.5,2.7h-19l-3.6-11.6Zm-28-14.3-26.6-.1-5.1,14.4H108.8l13.2-35.4Zm155-8.2H294.5v-7.1H251v7.1H227.3v-17.5H251v7h28.3a18.51,18.51,0,0,1-3.1-1.1q-3.9-1.95-3.9-5.1c0-4.5,5.3-7.1,16-7.8l12.6-.8c0-2.5-2.8-3.8-8.3-3.8a48.86,48.86,0,0,0-15.8,2.5v-5.4a64.64,64.64,0,0,1,8.2-1.4,83.44,83.44,0,0,1,9.5-.6c13.3,0,19.9,3.3,19.9,9.9v6.7h3.8ZM389.5,210H379.1v9.4c0,2.4,1.9,3.6,5.8,3.6a15.77,15.77,0,0,0,4.7-.7v5.3c-2.1.6-5.3.8-9.6.8q-11.1,0-14.1-4.2v10.9h8.8v3.1H333.5v-3.1h8.8v-7.2H329.7v-18h-7.9v-5.3h7.8v-2.9c0-2.6,1.7-4.8,5.2-6.4s8.1-2.4,14.1-2.4a49.13,49.13,0,0,1,7.3.5V199a24.36,24.36,0,0,0-5.3-.5c-4.6,0-6.9,1.2-6.9,3.7v2.5h10.6V210H344v10.8h20.8v-10.7h-7.5v-5.3h7.5v-5l14.3-2v7.1h10.4V210Zm119.9,28.3H486v-10.5a9.08,9.08,0,0,1,.9-3.7h-.6a14.22,14.22,0,0,1-3.3,2.3l-24.6,11.9H439.1l-20.7-9.7a56,56,0,0,1-7.4-.4v10.2H389.8v-17.6h6.1a7.92,7.92,0,0,1-1-4c0-3.9,2.2-6.9,6.7-9.2s10-3.4,16.5-3.4c6.8,0,12,1,15.7,3s5.6,4.7,5.6,8.2v3H409.1a4,4,0,0,0,1.2,2.4h14.1L429,223a41.34,41.34,0,0,0,6.3-1.4V226l10.6,5.1a11.75,11.75,0,0,1,3.7,2.5h.4a22.18,22.18,0,0,1,4.2-2.5l6.5-3.1H447.9v-23.3h14.3V209h.2c2.3-3.1,6.4-4.7,12.3-4.7a15.6,15.6,0,0,1,3.5.3v6.6a21.5,21.5,0,0,0-6-.7,13.58,13.58,0,0,0-7.3,1.7,5.16,5.16,0,0,0-2.6,4.7v10.3l13.4-6.5h33.8v17.6ZM356.1,34.43a48.9,48.9,0,0,1,14.6-5.6,144,144,0,0,1,22.4-3.6,284.94,284.94,0,0,1,29-1.3,237.36,237.36,0,0,1,29.5,1.6,124.21,124.21,0,0,1,22.3,4.6c6.1,2,10.8,4.5,14.1,7.4s4.9,6.3,4.9,10c0,4.5-2,8.5-5.9,12s-9.7,6.5-17.2,8.9c-1.3.4-2.8.8-4.2,1.2a5.17,5.17,0,0,1,1.8,4.2v10h-9.8v-9a3,3,0,0,0-1.7-2.8c-2.7.5-5.5,1-8.5,1.4a3,3,0,0,0-.5,1.6v9H437v-9.3c-3.4.3-6.9.6-10.6.8V84h-9.9V76c-2.1.1-4.3.1-6.4.1a7.57,7.57,0,0,1-3.9,5.9q-3.9,2.4-10.5,2.4c-3.9,0-6.8-.8-8.8-2.3h-.1v9.2h-10v-16c-5.1-.3-9.9-.7-14.3-1.2V65a245,245,0,0,0,38.3,2.6c15.3,0,27.2-1.3,35.9-3.9s13-6.4,13.1-11.3l-.8-.1c-8.9,3.3-22.5,5-40.6,5a202,202,0,0,1-22.9-1.2,121.73,121.73,0,0,1-18.1-3.2,43,43,0,0,1-12-4.9c-2.9-1.9-4.3-4-4.3-6.3C350.9,39,352.7,36.63,356.1,34.43Zm-75.2-4.6a4.88,4.88,0,0,0,1.1-.4c.1,3.1.1,4.9.2,8.4a24.25,24.25,0,0,1,4.1-8,8.15,8.15,0,0,1,4.6-2.8,7.68,7.68,0,0,1,7.5,2.9c2.5,3,3.9,7,3.9,12A22,22,0,0,1,297.6,56a18,18,0,0,1-8.9,6.5,9.92,9.92,0,0,1-3.8.7,5.07,5.07,0,0,1-2.6-.9v9.8a14.36,14.36,0,0,0,.3,4,1.44,1.44,0,0,0,1.1.9,8.29,8.29,0,0,0,3-.7v1.3c-5.7,2.2-8.3,3.8-13.5,7v-1.3c.3-.2.4-.2.7-.4a9.22,9.22,0,0,0,2.6-2.2,6.71,6.71,0,0,0,.8-1.7,20.69,20.69,0,0,0,.3-4.5c0-10.4,0-20.8-.2-31.2a26,26,0,0,0-.4-4.7,1.84,1.84,0,0,0-.8-1.2,1.43,1.43,0,0,0-1.4.1,4.72,4.72,0,0,0-1.7,1.4c-.2-.5-.2-.8-.4-1.3A96.51,96.51,0,0,1,280.9,29.83Zm-27.6,11.9c.5,10.7.9,18.9.9,27.5,0,3,.4,4.8,1.3,5.4a2.88,2.88,0,0,0,3.1,0,9.26,9.26,0,0,0,2.7-2.4,39.5,39.5,0,0,0,3.6-5.6c0-7.3-.1-10.8-.5-21.1-.1-2.6-.5-4.1-1-4.7s-1.7-.6-3.4.1a8.08,8.08,0,0,0-.1-1.6c3.5-1.4,5.2-2.2,8.7-3.7.4,9.1.8,15.8.8,23.6,0,3.7.1,6,.2,6.7s.4,1.2.7,1.3a1.21,1.21,0,0,0,1-.1,6.18,6.18,0,0,0,1.9-1.8c.2.4.2.6.4,1l-7.5,8.5-1.2.7v-6.8c-2.2,4.3-3.8,7.1-5,8.4a11.13,11.13,0,0,1-3.7,3,3.87,3.87,0,0,1-3.9,0,5.72,5.72,0,0,1-2.4-3.2,23.46,23.46,0,0,1-.7-6.8c0-5.8-.1-9.1-.4-17.8a17.35,17.35,0,0,0-.6-4.6,2.67,2.67,0,0,0-1.3-1.6,4.59,4.59,0,0,0-3,.2v-1.6C247.7,43.63,249.6,43,253.3,41.73Zm-43.1,9.9c1.8-3.1,4.1-5.2,6.9-6.1a19.63,19.63,0,0,1,8.7-.8c5.4.6,9.6,1.9,12.3,7a33.52,33.52,0,0,1,3.7,14.5,22.46,22.46,0,0,1-2,8.9c-1.4,3-3.2,5.3-5.8,6.6a12.35,12.35,0,0,1-8.8.8c-5.4-1.2-10-4.6-13.4-9.7-2.9-4.2-4.4-8.4-4.4-12.5A18.45,18.45,0,0,1,210.2,51.63Zm-43.8-35.7c3-2,6.9-2.5,11.8-1.4A31.17,31.17,0,0,1,188,19a13.85,13.85,0,0,0,3.4,1.9,2.17,2.17,0,0,0,1.8-.1c.5-.3.8-1.1,1.1-2.2.6.2,1,.2,1.6.4,0,7.4.1,12.7.1,19.2-.6-.2-1-.3-1.6-.5a32.63,32.63,0,0,0-2.8-9.3,22.17,22.17,0,0,0-5.7-6.9,20.12,20.12,0,0,0-7.6-3.8c-2.9-.7-5.3-.5-7.2.7a5.41,5.41,0,0,0-2.8,4.8,7.46,7.46,0,0,0,1.8,4.6c1.7,2.3,5.8,5.5,12.4,10.9a122.73,122.73,0,0,1,11.1,10.1,31.25,31.25,0,0,1,4.6,6.5,12.56,12.56,0,0,1,1.6,6,7.3,7.3,0,0,1-5.2,7.4c-3.4,1.3-7.9.9-13.2-1.1a51.07,51.07,0,0,1-4.7-2c-.9-.4-2.7-1.5-5.3-3s-4.3-2.4-5-2.5a2.1,2.1,0,0,0-1.6.1,3.09,3.09,0,0,0-.9,2c-.6-.1-.9-.2-1.5-.3V45.63c.6.1.9.2,1.5.3a26.49,26.49,0,0,0,2.8,8.4,21.11,21.11,0,0,0,5.5,5.8,31.73,31.73,0,0,0,8.3,4.5c3.5,1.3,6.4,1.6,8.5.8a4.26,4.26,0,0,0,3.1-4.3,8.6,8.6,0,0,0-1.2-4,18.49,18.49,0,0,0-3.7-4.7c-1.1-1.1-4.2-3.7-9.1-7.7s-8.3-7-10.3-8.9a22.45,22.45,0,0,1-4.5-5.7,11.57,11.57,0,0,1-1.5-5.7A10.26,10.26,0,0,1,166.4,15.93Zm211.9,102.9v67.6h-8v-59.6H151.2v-.1h-4.1V88h-2.9l7.1-4.2,7,4.2h-2.9v30.8ZM121.8,25.33c5.8.6,8.7.9,14.6,1.3v1.3h-.7a2.77,2.77,0,0,0-2.3.6,2.14,2.14,0,0,0-.8,1.7,12.12,12.12,0,0,0,1.1,4c3.1,6.8,4.6,10.1,7.7,16.7,2.9-7.2,4.3-10.7,7.2-17.8a7.44,7.44,0,0,0,.6-2.8,3,3,0,0,0-.2-1,1.46,1.46,0,0,0-.9-.6,7.85,7.85,0,0,0-2.1-.3v-1.3a98.39,98.39,0,0,1,10.7.4v1.3a4.14,4.14,0,0,0-2.1.4,4.3,4.3,0,0,0-1.6,1.5,21.47,21.47,0,0,0-1.2,2.7c-4.4,10.8-8.8,21.5-13,32.4a18.42,18.42,0,0,1-4.8,7.6c-2,1.8-3.8,2.9-5.6,3.1a4.15,4.15,0,0,1-4.7-3.9,4,4,0,0,1,.9-2.7,3.1,3.1,0,0,1,2.5-1.1,9.28,9.28,0,0,1,3.1.7,10.43,10.43,0,0,0,1.7.5,3.47,3.47,0,0,0,2.2-1.3,12.86,12.86,0,0,0,2.4-4.5c.9-2.4,1.3-3.5,2.2-5.8-4.6-9.8-6.8-14.7-11.3-25.2a23.09,23.09,0,0,0-1.6-3,9.22,9.22,0,0,0-1.4-1.9,9.42,9.42,0,0,0-2.5-1.3A10.91,10.91,0,0,1,121.8,25.33Zm-74.6,7.4a18.66,18.66,0,0,1,5.7-7.2A18.1,18.1,0,0,1,60.5,22q7.35-1.35,11.7,3.9a17,17,0,0,1,3.7,11,18.46,18.46,0,0,1-2,8.3A12.91,12.91,0,0,1,68.4,51a19.66,19.66,0,0,1-7.9,2.2c-4.8.5-8.7-.2-11.7-3a12.12,12.12,0,0,1-3.8-9.1A18.79,18.79,0,0,1,47.2,32.73Zm-15.9,126H191.8v2.6H31.3Zm70.6,19.4v34.1l-21.7-11.1v-23Zm-51.2,0v8.2l-16-8.2Zm-19.4,1.2,19.5,10.2v30c0,4.8,0,17.7,3.4,20.6a17.32,17.32,0,0,0,11.3,4.4c8.3,0,10.5-3.8,12.9-7.1,2.6-3.5,1.4-17.4,1.4-17.4v-15.7l22,11.1v14.7c0,2.4-.9,7.1-2,12.3S94,254.13,88,258.23s-16.8,5.1-21.8,5.1-35,0-35-21.4S31.3,179.33,31.3,179.33Zm0,99.3H191.8v2.7H31.3Z"/><path class="cls-1" d="M15.5,62.63a1.86,1.86,0,0,1-1.3-.7,7.91,7.91,0,0,1-.6-3.8c0-9.7-.1-19.5,0-29.2,0-2.7.3-4.4.7-5.1a4.69,4.69,0,0,1,2.2-1.9,9.51,9.51,0,0,1,3.3-.9v-1.2a183,183,0,0,1-19.8.8v1.3H1.8a5.64,5.64,0,0,1,4.1,1.4c.7.7,1,2.5,1,5.5v30.5c0,2.7-.2,4.5-.7,5.3a5.06,5.06,0,0,1-4.3,2.3H.1v1.3a74.2,74.2,0,0,0,19.8-3.5v-3A14.87,14.87,0,0,1,15.5,62.63Z"/><path class="cls-1" d="M92.8,7.53A7.13,7.13,0,0,1,94.1,4a3.07,3.07,0,0,1,2.6-1,3.36,3.36,0,0,1,2.4,1.1,14.42,14.42,0,0,1,2.5,3.7,14.89,14.89,0,0,0,2.3,3.6,3.43,3.43,0,0,0,1.7,1,2.05,2.05,0,0,0,1.9-.9,3.41,3.41,0,0,0,.7-2.4,8.46,8.46,0,0,0-2.3-5c-2.2-2.4-4.4-3.8-6.8-4.1a8.37,8.37,0,0,0-6.7,2.4,15.17,15.17,0,0,0-4.1,7.1,27.53,27.53,0,0,0-.9,4.5h5.3A38.7,38.7,0,0,1,92.8,7.53Z"/><path class="cls-1" d="M112.6,11.23c-.4-.1-.6-.1-1.1-.2-.3,1.1-.6,2-.8,2.8h2C112.7,13,112.6,12.13,112.6,11.23Z"/><path class="cls-1" d="M406.7,69.63q-3.45-2.1-9.6-2.1c-4.4,0-7.8.9-10.3,2.8h-.1v-2.4h-9.9v7.4c3.1.2,6.4.3,9.7.5v-.2a3.22,3.22,0,0,1,1.9-3,10.29,10.29,0,0,1,5-1.1q6.6,0,6.6,4.2v.5h10.1v-.6A6.71,6.71,0,0,0,406.7,69.63Z"/><path class="cls-1" d="M446.1,70.53q-2.55-3-9.3-3a22.33,22.33,0,0,0-6,.8,10.8,10.8,0,0,0-4.3,2.1h-.1v-2.5h-9.9v8c3.4-.1,6.7-.2,9.9-.4v-.4a3.06,3.06,0,0,1,1.5-2.7,7,7,0,0,1,4-1c3.3,0,5,1.1,5,3.3,1.7-.2,3.4-.3,5.1-.5s3.5-.5,5.2-.7a4.74,4.74,0,0,1,1-1,6.78,6.78,0,0,1,4-1,7,7,0,0,1,3.5.7c3.5-.7,6.7-1.4,9.7-2.2-1.7-1.5-4.6-2.2-8.6-2.2C452.1,67.53,448.6,68.53,446.1,70.53Z"/><path class="cls-1" d="M294.1,227.83H279.3a32.51,32.51,0,0,0,7.5.8A31.33,31.33,0,0,0,294.1,227.83Z"/><path class="cls-1" d="M298.4,222.13a11.17,11.17,0,0,1-3.9,1.2v4.4a14.39,14.39,0,0,0,6.2-3h.2V228h13.6v-7.2H300.1A5.86,5.86,0,0,1,298.4,222.13Z"/><polygon class="cls-1" points="343.9 220.83 333.4 220.83 333.4 223.83 342.2 223.83 342.2 228.03 343.9 228.03 343.9 220.83"/><path class="cls-1" d="M374.7,223.83v-3h-9.9a6.38,6.38,0,0,0,1.1,3.6v-.6Z"/><path class="cls-1" d="M435.3,226.83V226l-6.3-3a55.49,55.49,0,0,1-7.2.5c-5.9,0-9.7-.9-11.5-2.7H395.8a11.5,11.5,0,0,0,5.2,4.7,31.45,31.45,0,0,0,10,2.7,18,18,0,0,0-.9-4.1h.7a15.64,15.64,0,0,0,3.3,2.4l4.4,2.1h.1A63.94,63.94,0,0,0,435.3,226.83Z"/><polygon class="cls-1" points="462.3 227.23 460.7 228.03 462.3 228.03 462.3 227.23"/><path class="cls-1" d="M104.9,390.83H97.1a17.13,17.13,0,0,1,1.1,6.2,14.67,14.67,0,0,1-1,5.6h6.9a17.66,17.66,0,0,1-.7-4.6A16.55,16.55,0,0,1,104.9,390.83Z"/><path class="cls-1" d="M172.4,390.83h-.7c.1,1.2.2,2.8.2,4.9v6.9h11.4l-9-9.6A15.17,15.17,0,0,1,172.4,390.83Z"/><path class="cls-1" d="M128.3,386c-4,0-7.1,1-9.5,3.1l-.6.6h20a4.62,4.62,0,0,0-.7-.7A13.92,13.92,0,0,0,128.3,386Z"/><path class="cls-1" d="M70.4,386.33H64.8v3.5H82.9c-.3-.2-.5-.4-.8-.6C79.3,387.23,75.4,386.33,70.4,386.33Z"/><path class="cls-1" d="M151.5,390.83a16.61,16.61,0,0,1,1.3,6.4,19.05,19.05,0,0,1-.8,5.4h9.2v-11.8Z"/><path class="cls-1" d="M426,386.43c-.4,1.4-.7,2.5-1,3.4h1c.1-1.1.2-2.2.3-3.4Z"/><path class="cls-1" d="M391,390.83h-1.4c.1,1.7.1,3.3.1,4.8v7h7.1l-5.7-11.2A.66.66,0,0,0,391,390.83Z"/><path class="cls-1" d="M389.4,386.43c.1,1.2.2,2.3.3,3.4h1.1c-.3-.8-.6-2-1-3.4Z"/><path class="cls-1" d="M64.8,402.63h20a10,10,0,0,0,1.4-5.5,9.22,9.22,0,0,0-2.3-6.3H64.8Z"/><path class="cls-1" d="M346.8,386c-4,0-7.1,1-9.5,3.1l-.6.6h20a4.62,4.62,0,0,0-.7-.7A13.92,13.92,0,0,0,346.8,386Z"/><path class="cls-1" d="M115.3,397.53a11.93,11.93,0,0,0,1.1,5.1h23.4a12.59,12.59,0,0,0,1-4.9,11.37,11.37,0,0,0-1.9-6.8H117.3A10.79,10.79,0,0,0,115.3,397.53Z"/><polygon class="cls-1" points="21.5 390.83 21.5 375.83 19.8 375.83 19.8 402.63 53.4 402.63 53.4 390.83 21.5 390.83"/><path class="cls-1" d="M22.5,389.83h31v-10H71.4c13.7,0,22.1,3.3,25.3,10h8.8a16.65,16.65,0,0,1,4.9-5.4c4.6-3.4,10.7-5.2,18.4-5.2,7.2,0,13,1.6,17.5,4.9a15.59,15.59,0,0,1,4.9,5.7h10.1v-10h12.2l9.3,10h13v-10h10.7v10h21.2v-3.5H213.4v-6.5h40.1v6.5H239.1v3.5h40.2a17.45,17.45,0,0,1,5.2-5.3c5-3.5,11.4-5.3,19.4-5.3a48.6,48.6,0,0,1,12.4,1.3v7.7a29.84,29.84,0,0,0-11.5-2.1c-4.7,0-8.6,1-11.5,3.1-.3.2-.5.4-.8.6H324a16.65,16.65,0,0,1,4.9-5.4c4.6-3.4,10.7-5.2,18.4-5.2,7.2,0,13,1.6,17.5,4.9a15.59,15.59,0,0,1,4.9,5.7h10.1v-10h16.6l4.9,10H416l4.9-10h16.2v10h11.5v-10h29.1v6.5H460v3.5h47.4v-14H22.5Z"/><path class="cls-1" d="M370,390.83a16.61,16.61,0,0,1,1.3,6.4,19.05,19.05,0,0,1-.8,5.4h9.2v-11.8Z"/><path class="cls-1" d="M333.8,397.53a11.93,11.93,0,0,0,1.1,5.1h23.5a12.59,12.59,0,0,0,1-4.9,11.37,11.37,0,0,0-1.9-6.8H335.8A10.79,10.79,0,0,0,333.8,397.53Z"/><path class="cls-1" d="M323.4,390.83h-32a9.7,9.7,0,0,0-2.5,6.8,9.88,9.88,0,0,0,1.2,4.9h32.5a17.66,17.66,0,0,1-.7-4.6A15.09,15.09,0,0,1,323.4,390.83Z"/><path class="cls-1" d="M193.4,401.33c.4.4.8.9,1.2,1.3h1.3a29.18,29.18,0,0,1-.1-3.2v-8.6H183.7Z"/><path class="cls-1" d="M425.9,390.83h-1.4c0,.1-.1.2-.1.3l-5.6,11.5h7.1V394C425.8,393,425.9,391.93,425.9,390.83Z"/><rect class="cls-1" x="437" y="390.83" width="11.5" height="11.8"/><rect class="cls-1" x="206.5" y="390.83" width="21.2" height="11.8"/><path class="cls-1" d="M406.5,400.73a14.17,14.17,0,0,1,.8,1.8h2.4c.3-.7.6-1.3.8-1.9l4.9-9.9H401.6Z"/><path class="cls-1" d="M278.6,390.83H239v11.8h38.5a15.6,15.6,0,0,1-.6-4.4A16.44,16.44,0,0,1,278.6,390.83Z"/><polygon class="cls-1" points="459.9 390.83 459.9 394.13 476.3 394.13 476.3 400.63 459.9 400.63 459.9 402.63 513.8 402.63 513.8 375.83 508.3 375.83 508.3 390.83 459.9 390.83"/><path class="cls-1" d="M82,405.53c-2.8,2.1-6.7,3.1-11.6,3.1H64.8v-6.1H53.4V415H71.3c8.1,0,14.6-1.6,19.5-4.9a16.54,16.54,0,0,0,6.4-7.6H84.8A8.91,8.91,0,0,1,82,405.53Z"/><path class="cls-1" d="M137.4,405.93q-3.45,3-9.3,3c-3.8,0-6.9-1-9.2-3.1a9.61,9.61,0,0,1-2.5-3.2H104.1a16.06,16.06,0,0,0,6.1,8.2c4.5,3.3,10.4,4.9,17.6,4.9q11.1,0,18-5.1a16.56,16.56,0,0,0,6.1-8.1H139.8A10,10,0,0,1,137.4,405.93Z"/><rect class="cls-1" x="161.1" y="402.63" width="10.7" height="12.5"/><path class="cls-1" d="M196,404.23h-.1a20,20,0,0,0-1.4-1.6H183.2l11.7,12.5h11.5v-12.5H195.8A11.55,11.55,0,0,1,196,404.23Z"/><rect class="cls-1" x="227.6" y="402.63" width="11.4" height="12.5"/><path class="cls-1" d="M283.5,410.93c4.4,3.2,10.5,4.8,18.2,4.8,5.9,0,10.7-.6,14.4-1.9v-7.3a32,32,0,0,1-12.2,2.3q-6.9,0-11.1-3a9.73,9.73,0,0,1-2.9-3.2H277.3A16.24,16.24,0,0,0,283.5,410.93Z"/><path class="cls-1" d="M355.8,405.93q-3.45,3-9.3,3c-3.8,0-6.9-1-9.2-3.1a9.61,9.61,0,0,1-2.5-3.2H322.5a16.06,16.06,0,0,0,6.1,8.2c4.5,3.3,10.4,4.9,17.6,4.9q11.1,0,18-5.1a16.56,16.56,0,0,0,6.1-8.1H358.2A8.83,8.83,0,0,1,355.8,405.93Z"/><rect class="cls-1" x="379.6" y="402.63" width="10.2" height="12.5"/><rect class="cls-1" x="425.8" y="402.63" width="11.2" height="12.5"/><path class="cls-1" d="M408.5,405.83h-.2a19.66,19.66,0,0,0-1-3.2H396.9l6.3,12.5h9.3l6.2-12.5h-9C409.3,403.53,408.9,404.63,408.5,405.83Z"/><polygon class="cls-1" points="448.5 415.13 478.7 415.13 478.7 408.63 459.9 408.63 459.9 402.63 448.5 402.63 448.5 415.13"/><rect class="cls-1" x="21.5" y="371.83" width="1" height="4"/><rect class="cls-1" x="507.3" y="371.83" width="1" height="4"/><rect class="cls-1" x="53.4" y="389.83" width="11.4" height="1"/><path class="cls-1" d="M82.9,389.83a4.74,4.74,0,0,1,1,1H97c-.1-.3-.3-.7-.4-1Z"/><path class="cls-1" d="M138.2,389.83a8.74,8.74,0,0,1,.8,1h12.5c-.1-.3-.3-.7-.4-1Z"/><path class="cls-1" d="M118.2,389.83H105.4a4.67,4.67,0,0,0-.5,1h12.5A7,7,0,0,1,118.2,389.83Z"/><rect class="cls-1" x="195.8" y="389.83" width="10.7" height="1"/><path class="cls-1" d="M161.1,389.83v1h10.5c0-.3-.1-.6-.1-.8h.1a5.55,5.55,0,0,1,.6.8h11.3l-.9-1Z"/><rect class="cls-1" x="227.6" y="389.83" width="11.4" height="1"/><path class="cls-1" d="M279.2,389.83c-.2.3-.4.7-.6,1h12.7l1-1Z"/><path class="cls-1" d="M336.7,389.83H323.9a4.67,4.67,0,0,0-.5,1h12.4C336.1,390.53,336.4,390.13,336.7,389.83Z"/><path class="cls-1" d="M356.6,389.83a8.74,8.74,0,0,1,.8,1h12.5c-.1-.3-.3-.7-.4-1Z"/><path class="cls-1" d="M390.7,389.83a3,3,0,0,0,.4,1h10.6l-.5-1Z"/><path class="cls-1" d="M415.9,389.83l-.5,1h9.1a10.37,10.37,0,0,0,.4-1Z"/><path class="cls-1" d="M426,389.83a3.4,3.4,0,0,1-.1,1H437v-1Z"/><path class="cls-1" d="M379.6,389.83v1h10.1a3.4,3.4,0,0,0-.1-1Z"/><rect class="cls-1" x="448.5" y="389.83" width="11.4" height="1"/></g></g></svg>