<?xml version="1.0" encoding="utf-8"?>
<!-- Generator: Adobe Illustrator 21.0.2, SVG Export Plug-In . SVG Version: 6.00 Build 0)  -->
<svg version="1.1" id="Vector" xmlns="http://www.w3.org/2000/svg" xmlns:xlink="http://www.w3.org/1999/xlink" x="0px" y="0px"
	 width="595.3px" height="841.9px" viewBox="0 0 595.3 841.9" style="enable-background:new 0 0 595.3 841.9;" xml:space="preserve"
	>
<g>
	<path style="fill:#FFFFFF;stroke:#FFFFFF;stroke-miterlimit:10;" d="M315.9,309.1c0.3,1.2,0.9,2.1,2,2.7s2.4,0.5,4.1,0
		c2-0.7,3.7-2,5-4.2c1.7-2.8,2.6-6.2,2.6-10.6c0-4.9-1-8.6-3-11c-1.4-1.7-3-2.3-4.8-1.9c-1,0.2-1.9,0.8-2.9,1.7
		c-0.7,0.7-1.9,2.5-3.4,5.6c0.1,5.5,0.2,7.8,0.2,12.6C315.7,306.6,315.8,308.3,315.9,309.1z"/>
	<path style="fill:#FFFFFF;stroke:#FFFFFF;stroke-miterlimit:10;" d="M451.2,460.2c-2.3,0-4.3,0.5-6,1.4c-1.7,1-2.7,2.1-3.1,3.6
		h17.1C459.3,461.9,456.6,460.2,451.2,460.2z"/>
	<path style="fill:#FFFFFF;stroke:#FFFFFF;stroke-miterlimit:10;" d="M421.5,330.7c1.2,0.7,2.7,1,4.6,1c2.3,0,4-0.4,5.2-1.3
		c1.1-0.8,1.7-1.8,1.8-3.2c-4.7,0-9.1-0.1-13.4-0.3v1C419.7,329.1,420.3,330,421.5,330.7z"/>
	<path style="fill:#FFFFFF;stroke:#FFFFFF;stroke-miterlimit:10;" d="M429.6,295.4c1.3,1,3.2,1.9,5.6,2.6s5.3,1.2,8.6,1.6
		c3.4,0.4,7.1,0.5,11.3,0.5c3.9,0,7.5-0.2,10.7-0.6s5.9-0.9,8.2-1.6c2.3-0.7,4.1-1.4,5.3-2.3c1.3-0.9,1.9-1.9,1.9-2.9
		c0-1.3-0.7-2.5-2-3.6s-3.1-2.1-5.5-2.9c-2.3-0.8-5.2-1.5-8.6-2s-7.1-0.7-11.1-0.7c-3.8,0-7.4,0.2-10.6,0.6s-6,1-8.4,1.7
		c-2.3,0.7-4.2,1.6-5.5,2.7c-1.3,1-2,2.1-2,3.3C427.6,293.3,428.2,294.4,429.6,295.4z"/>
	<path style="fill:#FFFFFF;stroke:#FFFFFF;stroke-miterlimit:10;" d="M95.1,302.1c2.2-0.2,4.1-1,5.5-2.8c1.4-1.7,2.1-4.8,2.1-9.2
		c0-5.5-1.3-9.8-3.8-12.5c-1.7-1.9-3.8-2.6-6.4-2.1c-1.2,0.2-2.5,0.8-3.7,1.7c-1.2,0.9-2.2,2.3-3,4.1c-0.8,1.8-1.1,4-1.1,6.6
		c0,4.1,1.1,7.7,3,10.5C89.7,301.2,92.1,302.4,95.1,302.1z"/>
	<path style="fill:#FFFFFF;stroke:#FFFFFF;stroke-miterlimit:10;" d="M260.2,331.6c2.5,0.5,4.5-0.2,6.1-1.9c1.6-1.7,2.3-4.9,2.3-9.5
		c0-5.7-1.2-12.3-3.8-17c-1.8-3.2-4-4.6-6.9-5c-1.4-0.2-2.8,0-4.3,0.6c-1.4,0.6-2.6,2-3.6,4.2c-0.9,2.2-1.4,5.3-1.4,8.3
		c0,4.9,1.1,9.1,3.3,13.1C253.9,328.5,256.8,331,260.2,331.6z"/>
	<path style="fill:#FFFFFF;stroke:#FFFFFF;stroke-miterlimit:10;" d="M327.7,479L327.7,479c-0.1-0.1-0.2,0-0.3,0H327.7z"/>
	<polygon style="fill:#FFFFFF;stroke:#FFFFFF;stroke-miterlimit:10;" points="175.3,481.4 194.8,481.4 185,453.6 	"/>
	<path style="fill:#FFFFFF;stroke:#FFFFFF;stroke-miterlimit:10;" d="M333.3,472c0.6-0.7,0.9-1.4,0.9-2.2v-1.6l-8.4,0.5
		c-4.7,0.3-7,1.4-7,3.2c0,0.8,0.6,1.5,1.7,2s2.7,0.8,4.6,0.8c1,0,1.8-0.1,2.7-0.2V472H333.3z"/>
	<path style="fill:#FFFFFF;stroke:#FFFFFF;stroke-miterlimit:10;" d="M66.6,574.3c0.6,0.4,1.3,0.7,2.1,0.7c1.1,0,1.9-0.3,2.5-0.9
		c0.6-0.6,0.9-1.4,0.9-2.4c0-0.9-0.3-1.5-0.8-2S70,569,69,569c-0.9,0-1.7,0.2-2.3,0.7s-0.9,1.1-0.9,1.9v1.1
		C65.7,573.3,66,573.9,66.6,574.3z"/>
	<path style="fill:#FFFFFF;stroke:#FFFFFF;stroke-miterlimit:10;" d="M75.8,604.9c-1.1,0-1.9,0.3-2.5,0.8s-0.9,1.3-0.9,2.2
		c0,2,1.2,3,3.5,3c2.2,0,3.3-1,3.3-3.1C79.1,605.9,78,604.9,75.8,604.9z"/>
	<path style="fill:#FFFFFF;stroke:#FFFFFF;stroke-miterlimit:10;" d="M319.3,604.7c-0.8,0-1.4,0.2-1.9,0.6s-0.7,0.9-0.7,1.6
		c0,1.5,0.9,2.2,2.6,2.2c1.6,0,2.4-0.8,2.4-2.3C321.7,605.4,320.9,604.7,319.3,604.7z"/>
	<path style="fill:#FFFFFF;stroke:#FFFFFF;stroke-miterlimit:10;" d="M167.8,580.7c0,0.4,0.2,0.7,0.5,0.9c0.4,0.2,0.9,0.4,1.5,0.4
		c0.9,0,1.6-0.2,2.1-0.6c0.5-0.4,0.8-1,0.8-1.6V579l-2.7,0.2C168.5,579.4,167.8,579.9,167.8,580.7z"/>
	<path style="fill:#FFFFFF;stroke:#FFFFFF;stroke-miterlimit:10;" d="M86.4,568.6c-0.7,0-1.4,0.2-1.9,0.6c-0.5,0.4-0.9,1-1,1.6H89
		C89,569.4,88.1,568.6,86.4,568.6z"/>
	<path style="fill:#FFFFFF;stroke:#FFFFFF;stroke-miterlimit:10;" d="M425.7,608.4c0,0.3,0.1,0.5,0.4,0.7s0.6,0.3,1.1,0.3
		c0.6,0,1.2-0.2,1.6-0.5s0.6-0.7,0.6-1.2v-0.5l-2,0.2C426.2,607.4,425.7,607.8,425.7,608.4z"/>
	<path style="fill:#FFFFFF;stroke:#FFFFFF;stroke-miterlimit:10;" d="M443.6,608.4c0,0.3,0.1,0.5,0.4,0.7s0.6,0.3,1.1,0.3
		c0.6,0,1.2-0.2,1.6-0.5s0.6-0.7,0.6-1.2v-0.5l-2,0.2C444.1,607.4,443.6,607.8,443.6,608.4z"/>
	<path style="fill:#FFFFFF;stroke:#FFFFFF;stroke-miterlimit:10;" d="M393.2,608.4c0,0.3,0.1,0.5,0.4,0.7s0.6,0.3,1.1,0.3
		c0.6,0,1.2-0.2,1.6-0.5s0.6-0.7,0.6-1.2v-0.5l-2,0.2C393.7,607.4,393.2,607.8,393.2,608.4z"/>
	<path style="fill:#FFFFFF;stroke:#FFFFFF;stroke-miterlimit:10;" d="M315,575.4c-0.7,0-1.4,0.2-1.9,0.6c-0.5,0.4-0.9,1-1,1.6h5.5
		C317.6,576.2,316.8,575.4,315,575.4z"/>
	<path style="fill:#FFFFFF;stroke:#FFFFFF;stroke-miterlimit:10;" d="M491.2,604.5c-0.5,0-1,0.2-1.4,0.5s-0.6,0.7-0.7,1.2h4
		C493.1,605,492.5,604.5,491.2,604.5z"/>
	<path style="fill:#FFFFFF;stroke:#FFFFFF;stroke-miterlimit:10;" d="M416.3,604.5c-0.5,0-1,0.2-1.4,0.5s-0.6,0.7-0.7,1.2h4
		C418.2,605,417.5,604.5,416.3,604.5z"/>
	<path style="fill:#FFFFFF;stroke:#FFFFFF;stroke-miterlimit:10;" d="M55.7,552.5V623h484.8v-70.5H55.7z M362.6,568.5h4.6V584h-4.6
		V568.5z M309.7,574.8c1.4-1,3.2-1.5,5.3-1.5c2.2,0,3.9,0.5,5.1,1.4s1.8,2.1,1.8,3.7v1.4h-9.8c0.2,1.5,1.5,2.3,4.1,2.3
		c1.7,0,3.1-0.3,4.4-0.8v2.3c-1.4,0.5-3.2,0.8-5.4,0.8c-2.4,0-4.3-0.5-5.6-1.4c-1.3-0.9-2-2.3-2-3.9
		C307.5,577.2,308.3,575.8,309.7,574.8z M295.2,573.5l2.6,6.5c0.3,0.7,0.5,1.4,0.5,1.9h0.1c0.1-0.5,0.2-1.1,0.5-1.8l2.7-6.5h4.8
		l-5.6,10.5h-5.3l-5.3-10.5h5L295.2,573.5L295.2,573.5z M261.8,581.1c0.8,0.3,1.5,0.6,2.3,0.7s1.5,0.2,2.1,0.2
		c0.8,0,1.5-0.1,1.9-0.2s0.7-0.4,0.7-0.7c0-0.2-0.1-0.4-0.3-0.5s-0.5-0.3-0.8-0.4s-0.7-0.2-1.1-0.3s-0.8-0.2-1.2-0.3
		c-0.6-0.2-1.1-0.3-1.6-0.5s-0.8-0.4-1.1-0.6s-0.5-0.5-0.7-0.8s-0.2-0.7-0.2-1.1c0-0.6,0.2-1.1,0.5-1.5c0.4-0.4,0.9-0.8,1.5-1
		c0.6-0.3,1.3-0.5,2.1-0.6c0.8-0.1,1.6-0.2,2.5-0.2c0.7,0,1.3,0,2,0.1s1.4,0.2,2,0.3v2.5c-0.6-0.2-1.2-0.4-1.9-0.5
		c-0.7-0.1-1.3-0.2-2-0.2c-0.3,0-0.6,0-0.9,0.1c-0.3,0-0.5,0.1-0.7,0.2c-0.2,0.1-0.4,0.2-0.5,0.3s-0.2,0.2-0.2,0.4s0.1,0.4,0.3,0.5
		s0.4,0.3,0.7,0.4c0.3,0.1,0.6,0.2,0.9,0.3s0.7,0.2,1,0.2c0.6,0.2,1.2,0.3,1.7,0.5s0.9,0.4,1.3,0.6c0.4,0.2,0.6,0.5,0.8,0.8
		s0.3,0.7,0.3,1.1c0,0.6-0.2,1.2-0.6,1.6c-0.4,0.4-0.9,0.8-1.5,1.1s-1.4,0.5-2.2,0.6c-0.8,0.1-1.7,0.2-2.6,0.2
		c-1.7,0-3.2-0.2-4.6-0.5v-2.8L261.8,581.1L261.8,581.1z M97.3,568c1.4-1,3.2-1.5,5.3-1.5c2.2,0,3.9,0.5,5.1,1.4s1.8,2.1,1.8,3.7
		v1.4h-9.8c0.2,1.5,1.5,2.3,4.1,2.3c1.7,0,3.1-0.3,4.4-0.8v2.3c-1.4,0.5-3.2,0.8-5.4,0.8c-2.4,0-4.3-0.5-5.6-1.4
		c-1.3-0.9-2-2.3-2-3.9C95.1,570.4,95.8,569,97.3,568z M81.1,568c1.4-1,3.2-1.5,5.3-1.5c2.2,0,3.9,0.5,5.1,1.4s1.8,2.1,1.8,3.7v1.4
		h-9.8c0.2,1.5,1.5,2.3,4.1,2.3c1.7,0,3.1-0.3,4.4-0.8v2.3c-1.4,0.5-3.2,0.8-5.4,0.8c-2.4,0-4.3-0.5-5.6-1.4c-1.3-0.9-2-2.3-2-3.9
		C78.9,570.4,79.6,569,81.1,568z M61.2,561.7h4.6v6.6h0.1c1.1-1.2,2.8-1.8,4.9-1.8c1.9,0,3.4,0.5,4.5,1.4s1.6,2.2,1.6,3.8
		c0,1.8-0.6,3.2-1.8,4.2s-2.9,1.6-4.9,1.6c-1.8,0-3.2-0.5-4.2-1.5h-0.1v1.2h-4.6v-15.5H61.2z M65,595.2h-4.8L56,584.7h4.7l2.1,6.8
		c0.1,0.3,0.2,0.7,0.2,1.2l0,0c0-0.5,0.1-0.9,0.3-1.2l2.6-6.8h4.4l2.3,6.8c0.1,0.2,0.1,0.6,0.2,1.2h0.1c0-0.4,0.1-0.8,0.2-1.2
		l1.9-6.8h4.3L75,595.2h-4.9L68,589c-0.1-0.4-0.2-0.9-0.2-1.3h-0.1c-0.1,0.5-0.2,1-0.3,1.3L65,595.2z M81.7,611.9
		c-1.5,1-3.5,1.5-6,1.5s-4.5-0.5-5.9-1.5s-2.1-2.3-2.1-4s0.7-3.1,2.2-4.1s3.5-1.5,6-1.5s4.4,0.5,5.9,1.5c1.4,1,2.1,2.3,2.1,3.9
		C83.9,609.5,83.1,610.9,81.7,611.9z M86.2,595.2h-4.6v-15.5h4.6v6.6h0.1c1.1-1.2,2.7-1.8,4.6-1.8c3.4,0,5.1,1.4,5.1,4.3v6.4h-4.6
		v-6c0-1.5-0.8-2.3-2.4-2.3c-0.8,0-1.5,0.2-2,0.6s-0.8,1-0.8,1.6C86.2,589.1,86.2,595.2,86.2,595.2z M101.3,613.2h-4.6v-6
		c0-1.5-0.8-2.3-2.4-2.3c-0.8,0-1.5,0.2-2,0.6s-0.8,1-0.8,1.6v6h-4.6v-15.5h4.6v6.6h0.1c1.1-1.2,2.7-1.8,4.6-1.8
		c3.4,0,5.1,1.4,5.1,4.3C101.3,606.7,101.3,613.2,101.3,613.2z M107.8,596c-1.5,2.7-3.7,4.1-6.6,4.1c-1.1,0-2-0.1-2.8-0.3v-2.6
		c0.6,0.3,1.3,0.4,2,0.4c1.2,0,2-0.4,2.5-1.2l0.8-1.3l-6.1-10.5h5.1l2.8,6.4c0.2,0.4,0.3,0.9,0.4,1.4h0.1c0.1-0.4,0.2-0.9,0.5-1.4
		l2.8-6.4h4.6L107.8,596z M149.7,582.4c-0.4,0.4-0.9,0.8-1.5,1.1s-1.4,0.5-2.2,0.6s-1.7,0.2-2.6,0.2c-1.7,0-3.2-0.2-4.6-0.5v-2.6
		c0.8,0.3,1.5,0.6,2.3,0.7s1.5,0.2,2.1,0.2c0.8,0,1.5-0.1,1.9-0.2s0.7-0.4,0.7-0.7c0-0.2-0.1-0.4-0.3-0.5s-0.5-0.3-0.8-0.4
		s-0.7-0.2-1.1-0.3s-0.8-0.2-1.2-0.3c-0.6-0.2-1.1-0.3-1.6-0.5s-0.8-0.4-1.1-0.6s-0.5-0.5-0.7-0.8s-0.2-0.7-0.2-1.1
		c0-0.6,0.2-1.1,0.5-1.5c0.4-0.4,0.9-0.8,1.5-1c0.6-0.3,1.3-0.5,2.1-0.6s1.6-0.2,2.5-0.2c0.7,0,1.3,0,2,0.1s1.4,0.2,2,0.3v2.5
		c-0.6-0.2-1.2-0.4-1.9-0.5s-1.3-0.2-2-0.2c-0.3,0-0.6,0-0.9,0.1c-0.3,0-0.5,0.1-0.7,0.2c-0.2,0.1-0.4,0.2-0.5,0.3s-0.2,0.2-0.2,0.4
		s0.1,0.4,0.3,0.5s0.4,0.3,0.7,0.4c0.3,0.1,0.6,0.2,0.9,0.3c0.3,0.1,0.7,0.2,1,0.2c0.6,0.2,1.2,0.3,1.7,0.5s0.9,0.4,1.3,0.6
		c0.4,0.2,0.6,0.5,0.8,0.8s0.3,0.7,0.3,1.1C150.3,581.4,150.1,581.9,149.7,582.4z M162,575.9h-3.4v4.2c0,1.1,0.6,1.6,1.9,1.6
		c0.5,0,1-0.1,1.5-0.3v2.4c-0.7,0.3-1.7,0.4-3.1,0.4c-3.3,0-4.9-1.2-4.9-3.6v-4.8h-2.4v-2.4h2.4v-2.3l4.6-0.9v3.2h3.4V575.9z
		 M177.1,584h-4.4v-1.5h-0.1c-1,1.2-2.5,1.8-4.5,1.8c-1.5,0-2.6-0.3-3.4-0.9c-0.8-0.6-1.3-1.3-1.3-2.3c0-2,1.7-3.2,5.2-3.5l4.1-0.4
		c0-1.1-0.9-1.7-2.7-1.7s-3.5,0.4-5.1,1.1v-2.4c0.6-0.2,1.5-0.4,2.6-0.6c1.1-0.2,2.1-0.3,3.1-0.3c4.3,0,6.4,1.5,6.4,4.5L177.1,584
		L177.1,584z M190.5,576.4c-0.6-0.2-1.2-0.3-1.9-0.3c-1,0-1.8,0.3-2.4,0.8c-0.6,0.5-0.8,1.2-0.8,2.1v5h-4.6v-10.5h4.6v1.9h0.1
		c0.7-1.4,2.1-2.1,4-2.1c0.5,0,0.9,0,1.1,0.1v3H190.5z M201.8,575.9h-3.4v4.2c0,1.1,0.6,1.6,1.9,1.6c0.5,0,1-0.1,1.5-0.3v2.4
		c-0.7,0.3-1.7,0.4-3.1,0.4c-3.3,0-4.9-1.2-4.9-3.6v-4.8h-2.4v-2.4h2.4v-2.3l4.6-0.9v3.2h3.4V575.9z M214.3,582.4
		c-0.4,0.4-0.9,0.8-1.5,1.1s-1.4,0.5-2.2,0.6s-1.7,0.2-2.6,0.2c-1.7,0-3.2-0.2-4.6-0.5v-2.6c0.8,0.3,1.5,0.6,2.3,0.7
		s1.5,0.2,2.1,0.2c0.8,0,1.5-0.1,1.9-0.2s0.7-0.4,0.7-0.7c0-0.2-0.1-0.4-0.3-0.5s-0.5-0.3-0.8-0.4s-0.7-0.2-1.1-0.3
		s-0.8-0.2-1.2-0.3c-0.6-0.2-1.1-0.3-1.6-0.5s-0.8-0.4-1.1-0.6s-0.5-0.5-0.7-0.8s-0.2-0.7-0.2-1.1c0-0.6,0.2-1.1,0.5-1.5
		c0.4-0.4,0.9-0.8,1.5-1c0.6-0.3,1.3-0.5,2.1-0.6s1.6-0.2,2.5-0.2c0.7,0,1.3,0,2,0.1s1.4,0.2,2,0.3v2.5c-0.6-0.2-1.2-0.4-1.9-0.5
		s-1.3-0.2-2-0.2c-0.3,0-0.6,0-0.9,0.1c-0.3,0-0.5,0.1-0.7,0.2c-0.2,0.1-0.4,0.2-0.5,0.3s-0.2,0.2-0.2,0.4s0.1,0.4,0.3,0.5
		s0.4,0.3,0.7,0.4c0.3,0.1,0.6,0.2,0.9,0.3c0.3,0.1,0.7,0.2,1,0.2c0.6,0.2,1.2,0.3,1.7,0.5s0.9,0.4,1.3,0.6c0.4,0.2,0.6,0.5,0.8,0.8
		s0.3,0.7,0.3,1.1C214.9,581.4,214.7,581.9,214.3,582.4z M248.6,580.5c-1.3,1.1-3,1.6-4.9,1.6c-1,0-1.8-0.2-2.4-0.5s-0.9-0.8-1-1.4
		h-0.1c-0.7,1.3-1.9,2-3.7,2c-1.3,0-2.4-0.3-3.3-1s-1.2-1.6-1.2-2.8c0-1.6,0.6-2.8,1.7-3.8c1.1-1,2.5-1.5,4.1-1.5
		c1.5,0,2.4,0.4,2.7,1.2h0.1l0.1-1h3.3c-0.4,2.9-0.7,4.8-0.7,5.7c0,1,0.4,1.4,1.1,1.4c0.8,0,1.4-0.4,1.9-1.1s0.8-1.7,0.8-2.8
		c0-1.6-0.7-2.9-2.2-3.9s-3.5-1.5-6.1-1.5c-2.8,0-5.1,0.7-7,2c-1.9,1.4-2.8,3-2.8,5c0,1.9,0.8,3.4,2.5,4.5s3.9,1.6,6.8,1.6
		c2.2,0,4.2-0.3,6-0.9v2c-1.7,0.5-3.8,0.7-6.4,0.7c-3.6,0-6.5-0.7-8.8-2.2c-2.3-1.4-3.4-3.4-3.4-5.8c0-2.5,1.2-4.6,3.6-6.3
		s5.5-2.5,9.3-2.5c3.5,0,6.4,0.7,8.5,2c2.2,1.3,3.3,3.1,3.3,5.2C250.6,578.1,249.9,579.5,248.6,580.5z M261.2,609.9
		c-1.1,0.7-2.5,1.1-4.4,1.1c-1.8,0-3.3-0.4-4.3-1.1c-1-0.7-1.6-1.7-1.6-2.9c0-1.3,0.5-2.3,1.6-3s2.6-1.1,4.4-1.1
		c1.8,0,3.3,0.4,4.3,1.1c1,0.7,1.6,1.7,1.6,2.9C262.8,608.1,262.3,609.1,261.2,609.9z M275.5,610.8h-3.4v-1.2H272
		c-0.8,0.9-2,1.4-3.4,1.4c-2.5,0-3.8-1.1-3.8-3.2v-4.6h3.4v4.4c0,1.1,0.6,1.6,1.8,1.6c0.6,0,1.1-0.1,1.5-0.4s0.5-0.7,0.5-1.2v-4.4
		h3.4v7.6L275.5,610.8L275.5,610.8z M275.1,578.9c0-1.7,0.7-3.1,2.2-4.1s3.2-1.5,5.3-1.5c2.2,0,3.9,0.5,5.1,1.4s1.8,2.1,1.8,3.7v1.4
		h-9.8c0.2,1.5,1.5,2.3,4.1,2.3c1.7,0,3.1-0.3,4.4-0.8v2.3c-1.4,0.5-3.2,0.8-5.4,0.8c-2.4,0-4.3-0.5-5.6-1.4
		C275.7,581.9,275.1,580.6,275.1,578.9z M285,604.8h-2.5v3.1c0,0.8,0.5,1.2,1.4,1.2c0.4,0,0.7-0.1,1.1-0.2v1.8
		c-0.5,0.2-1.3,0.3-2.3,0.3c-2.4,0-3.6-0.9-3.6-2.6v-3.5h-1.8v-1.8h1.8v-1.7l3.4-0.7v2.3h2.5V604.8z M297.6,610.8h-3.4v-1.1l0,0
		c-0.8,0.8-1.9,1.2-3.4,1.2c-1.4,0-2.5-0.3-3.3-1s-1.3-1.6-1.3-2.8c0-1.3,0.5-2.3,1.4-3.1s2.1-1.2,3.6-1.2c1.4,0,2.4,0.4,3,1.1l0,0
		v-4.6h3.4L297.6,610.8L297.6,610.8z M310.1,609.9c-1.1,0.7-2.5,1.1-4.4,1.1c-1.8,0-3.3-0.4-4.3-1.1c-1-0.7-1.6-1.7-1.6-2.9
		c0-1.3,0.5-2.3,1.6-3s2.6-1.1,4.4-1.1s3.3,0.4,4.3,1.1c1,0.7,1.6,1.7,1.6,2.9C311.8,608.1,311.2,609.1,310.1,609.9z M323.6,609.9
		c-1.1,0.7-2.5,1.1-4.4,1.1c-1.8,0-3.3-0.4-4.3-1.1c-1-0.7-1.6-1.7-1.6-2.9c0-1.3,0.5-2.3,1.6-3s2.6-1.1,4.4-1.1s3.3,0.4,4.3,1.1
		c1,0.7,1.6,1.7,1.6,2.9C325.2,608.1,324.7,609.1,323.6,609.9z M334.6,605.2c-0.4-0.2-0.9-0.2-1.4-0.2c-0.7,0-1.3,0.2-1.7,0.6
		c-0.4,0.4-0.6,0.9-0.6,1.5v3.7h-3.4v-7.7h3.4v1.4l0,0c0.5-1,1.5-1.6,2.9-1.6c0.4,0,0.6,0,0.8,0.1L334.6,605.2L334.6,605.2z
		 M339.2,584h-4.6v-5.8c0-1.6-0.8-2.4-2.5-2.4c-0.8,0-1.5,0.2-2,0.6s-0.8,1-0.8,1.6v6h-4.6v-10.5h4.6v1.7h0.1
		c1.1-1.3,2.7-1.9,4.8-1.9c3.3,0,5,1.4,5,4.3V584z M350.6,605.3c-0.7-0.4-1.5-0.6-2.4-0.6c-1,0-1.7,0.2-2.3,0.6
		c-0.6,0.4-0.9,0.9-0.9,1.7c0,0.7,0.3,1.2,0.8,1.6c0.5,0.4,1.3,0.6,2.2,0.6c0.8,0,1.7-0.2,2.5-0.6v1.9c-0.8,0.3-1.9,0.5-3.3,0.5
		c-1.7,0-3.1-0.4-4.1-1.1c-1-0.7-1.6-1.6-1.6-2.8c0-1.3,0.6-2.3,1.7-3.1s2.6-1.1,4.5-1.1c1.3,0,2.2,0.1,2.8,0.4L350.6,605.3
		L350.6,605.3z M349.8,575.9v-2.4h2.5v-1.3c0-1.2,0.6-2.2,1.7-2.9s2.6-1.1,4.5-1.1c0.9,0,1.7,0.1,2.3,0.2v2.5
		c-0.6-0.2-1.2-0.2-1.7-0.2c-1.5,0-2.2,0.6-2.2,1.7v1.1h3.4v2.4h-3.4v8.1h-4.6v-8.1H349.8z M363.3,610.8H360v-4.4
		c0-1.1-0.6-1.7-1.8-1.7c-0.6,0-1.1,0.2-1.5,0.5s-0.6,0.7-0.6,1.2v4.4h-3.4v-11.4h3.4v4.8l0,0c0.8-0.9,2-1.3,3.4-1.3
		c2.5,0,3.7,1.1,3.7,3.2L363.3,610.8L363.3,610.8z M369.4,610.8H366v-7.7h3.4V610.8z M369.2,601.5c-0.4,0.2-0.8,0.3-1.4,0.3
		s-1-0.1-1.4-0.4s-0.5-0.5-0.5-0.9s0.2-0.6,0.5-0.9s0.8-0.3,1.4-0.3s1.1,0.1,1.4,0.3c0.4,0.2,0.5,0.5,0.5,0.9
		C369.7,601,369.5,601.3,369.2,601.5z M375.7,610.8h-3.4v-11.4h3.4V610.8z M375.7,584h-4.6v-10.5h4.6V584z M375.4,571.4
		c-0.5,0.3-1.1,0.5-1.9,0.5s-1.4-0.2-1.9-0.5s-0.7-0.7-0.7-1.2s0.2-0.9,0.7-1.2s1.1-0.5,1.9-0.5s1.4,0.2,1.9,0.5s0.7,0.7,0.7,1.2
		C376.1,570.6,375.9,571.1,375.4,571.4z M381.9,610.8h-3.4v-11.4h3.4V610.8z M389.4,576.4c-0.6-0.2-1.2-0.3-1.9-0.3
		c-1,0-1.8,0.3-2.4,0.8s-0.8,1.2-0.8,2.1v5h-4.6v-10.5h4.6v1.9h0.1c0.7-1.4,2.1-2.1,4-2.1c0.5,0,0.9,0,1.1,0.1v3H389.4z M400,610.8
		h-3.2v-1.1l0,0c-0.7,0.9-1.8,1.3-3.3,1.3c-1.1,0-1.9-0.2-2.5-0.6c-0.6-0.4-0.9-1-0.9-1.7c0-1.5,1.3-2.4,3.8-2.6l3-0.3
		c0-0.8-0.7-1.3-2-1.3s-2.6,0.3-3.7,0.8v-1.8c0.5-0.2,1.1-0.3,1.9-0.5c0.8-0.1,1.6-0.2,2.2-0.2c3.1,0,4.7,1.1,4.7,3.3V610.8z
		 M400.7,575.9h-3.4v4.2c0,1.1,0.6,1.6,1.9,1.6c0.5,0,1-0.1,1.5-0.3v2.4c-0.7,0.3-1.7,0.4-3.1,0.4c-3.3,0-4.9-1.2-4.9-3.6v-4.8h-2.4
		v-2.4h2.4v-2.3l4.6-0.9v3.2h3.4V575.9z M409.9,605.2c-0.4-0.2-0.9-0.2-1.4-0.2c-0.7,0-1.3,0.2-1.7,0.6c-0.4,0.4-0.6,0.9-0.6,1.5
		v3.7h-3.4v-7.7h3.4v1.4l0,0c0.5-1,1.5-1.6,2.9-1.6c0.4,0,0.6,0,0.8,0.1L409.9,605.2L409.9,605.2z M404.8,588.9
		c-1.1,0-2-0.1-2.8-0.3V586c0.6,0.3,1.3,0.4,2,0.4c1.2,0,2-0.4,2.5-1.2l0.8-1.3l-6.1-10.5h5.1l2.8,6.4c0.2,0.4,0.3,0.9,0.4,1.4h0.1
		c0.1-0.4,0.2-0.9,0.5-1.4l2.8-6.4h4.6l-6.1,11.3C410,587.6,407.8,588.9,404.8,588.9z M421.3,607.6h-7.2c0.1,1.1,1.1,1.7,3,1.7
		c1.2,0,2.3-0.2,3.2-0.6v1.7c-1,0.4-2.3,0.6-4,0.6c-1.8,0-3.2-0.3-4.1-1s-1.5-1.7-1.5-2.9c0-1.3,0.5-2.3,1.6-3s2.4-1.1,3.9-1.1
		c1.6,0,2.8,0.3,3.7,1c0.9,0.7,1.3,1.6,1.3,2.7v0.9L421.3,607.6L421.3,607.6z M432.5,610.8h-3.2v-1.1l0,0c-0.7,0.9-1.8,1.3-3.3,1.3
		c-1.1,0-1.9-0.2-2.5-0.6c-0.6-0.4-0.9-1-0.9-1.7c0-1.5,1.3-2.4,3.8-2.6l3-0.3c0-0.8-0.7-1.3-2-1.3s-2.6,0.3-3.7,0.8v-1.8
		c0.5-0.2,1.1-0.3,1.9-0.5c0.8-0.1,1.6-0.2,2.2-0.2c3.1,0,4.7,1.1,4.7,3.3V610.8z M450.4,610.8h-3.2v-1.1l0,0
		c-0.7,0.9-1.8,1.3-3.3,1.3c-1.1,0-1.9-0.2-2.5-0.6c-0.6-0.4-0.9-1-0.9-1.7c0-1.5,1.3-2.4,3.8-2.6l3-0.3c0-0.8-0.7-1.3-2-1.3
		s-2.6,0.3-3.7,0.8v-1.8c0.5-0.2,1.1-0.3,1.9-0.5c0.8-0.1,1.6-0.2,2.2-0.2c3.1,0,4.7,1.1,4.7,3.3V610.8z M460.4,609.6
		c-0.3,0.3-0.7,0.6-1.1,0.8c-0.5,0.2-1,0.4-1.6,0.4c-0.6,0.1-1.2,0.1-1.9,0.1c-1.2,0-2.3-0.1-3.4-0.4v-1.9c0.6,0.2,1.1,0.4,1.7,0.5
		s1.1,0.2,1.6,0.2c0.6,0,1.1-0.1,1.4-0.2c0.3-0.1,0.5-0.3,0.5-0.5s-0.1-0.3-0.2-0.4s-0.4-0.2-0.6-0.3s-0.5-0.1-0.8-0.2
		c-0.3-0.1-0.6-0.1-0.8-0.2c-0.4-0.1-0.8-0.2-1.2-0.4c-0.3-0.1-0.6-0.3-0.8-0.5c-0.2-0.2-0.4-0.4-0.5-0.6c-0.1-0.2-0.2-0.5-0.2-0.8
		c0-0.4,0.1-0.8,0.4-1.1s0.6-0.6,1.1-0.8c0.4-0.2,1-0.3,1.5-0.4c0.6-0.1,1.2-0.1,1.8-0.1c0.5,0,1,0,1.5,0.1s1,0.1,1.5,0.2v1.8
		c-0.4-0.2-0.9-0.3-1.4-0.4c-0.5-0.1-1-0.1-1.4-0.1c-0.2,0-0.4,0-0.6,0s-0.4,0.1-0.5,0.1s-0.3,0.1-0.4,0.2c-0.1,0.1-0.1,0.2-0.1,0.3
		s0.1,0.3,0.2,0.4s0.3,0.2,0.5,0.3s0.4,0.1,0.7,0.2c0.3,0.1,0.5,0.1,0.8,0.2c0.5,0.1,0.9,0.2,1.2,0.4c0.4,0.1,0.7,0.3,0.9,0.5
		c0.3,0.2,0.5,0.4,0.6,0.6c0.1,0.2,0.2,0.5,0.2,0.8C460.8,608.9,460.7,609.3,460.4,609.6z M481.6,610.8H478l-1.6-4.5
		c-0.1-0.3-0.2-0.6-0.2-1h-0.1c0,0.4-0.1,0.7-0.2,1l-1.7,4.5h-3.5l-3.1-7.7h3.5l1.5,5c0.1,0.2,0.1,0.5,0.2,0.9h0.1
		c0-0.4,0.1-0.6,0.2-0.9l1.9-5h3.2l1.7,5c0,0.1,0.1,0.4,0.2,0.9h0.1c0-0.3,0.1-0.6,0.2-0.9l1.4-5h3.1L481.6,610.8z M496.3,607.6
		h-7.2c0.1,1.1,1.1,1.7,3,1.7c1.2,0,2.3-0.2,3.2-0.6v1.7c-1,0.4-2.3,0.6-4,0.6c-1.8,0-3.2-0.3-4.1-1s-1.5-1.7-1.5-2.9
		c0-1.3,0.5-2.3,1.6-3s2.4-1.1,3.9-1.1c1.6,0,2.8,0.3,3.7,1c0.9,0.7,1.3,1.6,1.3,2.7v0.9L496.3,607.6L496.3,607.6z M501.7,610.8
		h-3.4v-11.4h3.4V610.8z M504.5,610.8v-11.4h3.4v11.4H504.5z"/>
	<path style="fill:#FFFFFF;stroke:#FFFFFF;stroke-miterlimit:10;" d="M282.5,575.4c-0.7,0-1.4,0.2-1.9,0.6c-0.5,0.4-0.9,1-1,1.6h5.5
		C285.1,576.2,284.3,575.4,282.5,575.4z"/>
	<path style="fill:#FFFFFF;stroke:#FFFFFF;stroke-miterlimit:10;" d="M293.7,605.2c-0.4-0.3-1-0.5-1.6-0.5c-0.8,0-1.3,0.2-1.8,0.6
		c-0.4,0.4-0.6,1-0.6,1.7s0.2,1.2,0.6,1.6s1,0.5,1.7,0.5s1.2-0.2,1.7-0.6c0.4-0.4,0.6-0.9,0.6-1.5v-0.6
		C294.3,606,294.1,605.5,293.7,605.2z"/>
	<path style="fill:#FFFFFF;stroke:#FFFFFF;stroke-miterlimit:10;" d="M238.4,574.8c-0.9,0-1.6,0.4-2.1,1.1c-0.6,0.7-0.8,1.5-0.8,2.4
		c0,0.7,0.2,1.2,0.6,1.5c0.4,0.4,0.9,0.5,1.5,0.5c0.9,0,1.6-0.3,2.2-1s0.8-1.6,0.8-2.8c0-0.5-0.2-1-0.5-1.3S239,574.8,238.4,574.8z"
		/>
	<path style="fill:#FFFFFF;stroke:#FFFFFF;stroke-miterlimit:10;" d="M305.8,604.7c-0.8,0-1.4,0.2-1.9,0.6s-0.7,0.9-0.7,1.6
		c0,1.5,0.9,2.2,2.6,2.2c1.6,0,2.4-0.8,2.4-2.3C308.3,605.4,307.5,604.7,305.8,604.7z"/>
	<path style="fill:#FFFFFF;stroke:#FFFFFF;stroke-miterlimit:10;" d="M256.9,604.7c-0.8,0-1.4,0.2-1.9,0.6c-0.4,0.4-0.7,0.9-0.7,1.6
		c0,1.5,0.9,2.2,2.6,2.2c1.6,0,2.4-0.8,2.4-2.3C259.4,605.4,258.5,604.7,256.9,604.7z"/>
	<path style="fill:#FFFFFF;stroke:#FFFFFF;stroke-miterlimit:10;" d="M102.6,568.6c-0.7,0-1.4,0.2-1.9,0.6c-0.5,0.4-0.9,1-1,1.6h5.5
		C105.2,569.4,104.3,568.6,102.6,568.6z"/>
	<path style="fill:#FFFFFF;stroke:#FFFFFF;stroke-miterlimit:10;" d="M541.5,551.5V623h5.5V265H145.9c0.2,3.9,0.5,6.8,0.5,10.6
		c2.9,0.3,4.4,0.5,7.3,0.8c0,1.1,0,1.6,0,2.6c-2.9-0.3-4.4-0.4-7.3-0.7c0,9.2,0,13.8-0.1,22.7c0,2.2,0.3,3.7,0.8,4.5
		c0.6,0.8,1.3,1.2,2.2,1.2c0.8,0,1.5-0.2,2.2-0.7s1.3-1.2,1.7-2.2c0.5,0,0.8,0,1.3,0c-0.8,2.4-2,4.2-3.4,5.4
		c-1.5,1.2-2.9,1.9-4.5,1.9c-1,0-2.1-0.4-3.1-1.2c-1-0.8-1.8-1.7-2.2-2.9c-0.5-1.2-0.7-3.1-0.7-5.6c0.1-9.3,0.1-14.1,0.1-23.8
		c-2-0.2-3-0.3-4.9-0.5c0-0.5,0-0.8,0-1.3c1.3-0.4,2.5-1.3,3.8-2.5s2.3-3.2,3.2-5.3c0.3-0.7,0.6-1.7,1.1-3.1h-18
		c0.1,1.6,0.2,3.6,0.3,5.8c0.1,1.2,0.1,1.7,0.1,2.8c3.2,0.3,4.9,0.4,8.1,0.7c0,1.1,0,1.7,0,2.8c-3.2-0.3-4.8-0.5-8.1-0.8
		c0,9.4,0,14.1-0.1,23.2c0,3.2,0.3,5.3,0.9,6.3c0.8,1.2,2,1.9,3.4,2.1c1.1,0.1,1.7,0.2,2.8,0.3c0,0.5,0,0.9,0,1.5
		c-7.5-0.8-11.2-1.4-18.8-3.3c0-0.5,0-0.8,0-1.3c0.6,0.1,0.8,0.2,1.4,0.3c0.9,0.2,1.8,0.1,2.5-0.2c0.8-0.3,1.3-0.9,1.6-1.7
		c0.3-0.8,0.4-2.4,0.5-4.8c0.1-9,0.1-13.6,0.1-22.8c-2.5-0.2-3.7-0.3-6.2-0.4c0-1.1,0-1.6,0-2.7c2.5,0.1,3.7,0.2,6.2,0.3
		c0-0.9,0-1.4,0-2.4c-0.1-2.1-0.1-4,0.1-5.7H53v5.9c0.7-0.1,1.4-0.1,2.2-0.2c0,0.5,0,0.7,0,1.1c-0.8,0.1-1.5,0.2-2.2,0.3v40.9
		c0.4-0.1,0.8-0.2,1.3-0.4c1.4-0.4,2.1-0.7,3.5-1.1c3.7-1.2,6.3-2.4,7.8-3.5c1.5-1,2.8-2.4,4-4.1s2.4-4.2,3.6-7.3
		c0.5-0.1,0.7-0.1,1.2-0.2c-1.6,5.3-2.5,8.2-3.9,13.4c-5.7,2.2-11.6,4.4-17.5,6.2V623h1.7v-71.5H541.5z M224.9,509.3l-68.6-35.1
		l17.1-44.9h23.2l28.2,73.8v6.2H224.9z M224.4,512h-19l-3.6-11.6L224.4,512z M196.4,497.7l-26.6-0.1l-5.1,14.4H142l13.2-35.4
		L196.4,497.7z M351.4,489.5h-23.7v-7.1h-43.5v7.1h-23.7V472h23.7v7h28.3c-1.2-0.3-2.2-0.7-3.1-1.1c-2.6-1.3-3.9-3-3.9-5.1
		c0-4.5,5.3-7.1,16-7.8l12.6-0.8c0-2.5-2.8-3.8-8.3-3.8s-10.8,0.8-15.8,2.5v-5.4c2-0.5,4.7-1,8.2-1.4s6.6-0.6,9.5-0.6
		c13.3,0,19.9,3.3,19.9,9.9v6.7h3.8V489.5z M422.7,461.2h-10.4v9.4c0,2.4,1.9,3.6,5.8,3.6c1.5,0,3.1-0.2,4.7-0.7v5.3
		c-2.1,0.6-5.3,0.8-9.6,0.8c-7.4,0-12.1-1.4-14.1-4.2v10.9h8.8v3.1h-41.2v-3.1h8.8v-7.2h-12.6v-18H355v-5.3h7.8v-2.9
		c0-2.6,1.7-4.8,5.2-6.4s8.1-2.4,14.1-2.4c2.9,0,5.3,0.2,7.3,0.5v5.6c-1.8-0.4-3.6-0.5-5.3-0.5c-4.6,0-6.9,1.2-6.9,3.7v2.5h10.6v5.3
		h-10.6V472H398v-0.1v-10.6h-7.5V456h7.5v-5l14.3-2v7.1h10.4L422.7,461.2L422.7,461.2z M542.6,489.5h-23.4V479
		c0-1.1,0.3-2.4,0.9-3.7h-0.6c-1.2,1.1-2.3,1.8-3.3,2.3l-24.6,11.9h-19.3l-20.7-9.7c-2.7,0-5.2-0.1-7.4-0.4c0,0.2,0,0.3,0,0.5v9.7
		H423V472h6.1c-0.7-1.2-1-2.6-1-4c0-3.9,2.2-6.9,6.7-9.2c4.5-2.3,10-3.4,16.5-3.4c6.8,0,12,1,15.7,3s5.6,4.7,5.6,8.2v3h-30.3
		c0.1,0.9,0.5,1.7,1.2,2.4h14.1l4.6,2.2c2.2-0.3,4.3-0.8,6.3-1.4v4.4l10.6,5.1c1.7,0.8,3,1.7,3.7,2.5h0.4c1.3-1,2.7-1.8,4.2-2.5
		l6.5-3.1h-12.8v-23.3h14.3v4.3h0.2c2.3-3.1,6.4-4.7,12.3-4.7c1.5,0,2.7,0.1,3.5,0.3v6.6c-1.7-0.5-3.7-0.7-6-0.7
		c-3.1,0-5.6,0.6-7.3,1.7c-1.8,1.1-2.6,2.7-2.6,4.7v10.3l13.4-6.5h33.8v17.6H542.6z M389.3,285.6c3.5-2.2,8.3-4.1,14.6-5.6
		c6.2-1.6,13.7-2.8,22.4-3.6c8.7-0.9,18.4-1.3,29-1.3c11,0,20.8,0.5,29.5,1.6s16.1,2.6,22.3,4.6c6.1,2,10.8,4.5,14.1,7.4
		c3.2,2.9,4.9,6.3,4.9,10c0,4.5-2,8.5-5.9,12s-9.7,6.5-17.2,8.9c-1.3,0.4-2.8,0.8-4.2,1.2c1.2,1,1.8,2.4,1.8,4.2v10h-9.8v-9
		c0-1.3-0.6-2.2-1.7-2.8c-2.7,0.5-5.5,1-8.5,1.4c-0.3,0.5-0.5,1-0.5,1.6v9h-9.9V326c0,0,0,0,0-0.1c-3.4,0.3-6.9,0.6-10.6,0.8v8.5
		h-9.9v-8c-2.1,0.1-4.3,0.1-6.4,0.1c-0.2,2.4-1.5,4.4-3.9,5.9c-2.6,1.6-6.1,2.4-10.5,2.4c-3.9,0-6.8-0.8-8.8-2.3H420v9.2h-10v-16
		c-5.1-0.3-9.9-0.7-14.3-1.2v-9.1c10.6,1.7,23.3,2.6,38.3,2.6c15.3,0,27.2-1.3,35.9-3.9c8.6-2.6,13-6.4,13.1-11.3l-0.8-0.1
		c-8.9,3.3-22.5,5-40.6,5c-8.3,0-15.9-0.4-22.9-1.2c-7-0.8-13-1.8-18.1-3.2c-5.1-1.4-9.1-3-12-4.9s-4.3-4-4.3-6.3
		C384.1,290.2,385.9,287.8,389.3,285.6z M314.1,281c0.4-0.1,0.7-0.2,1.1-0.4c0.1,3.1,0.1,4.9,0.2,8.4c1.3-3.8,2.7-6.4,4.1-8
		s3-2.5,4.6-2.8c2.9-0.5,5.5,0.5,7.5,2.9c2.5,3,3.9,7,3.9,12c0,5.6-1.6,10.1-4.7,14.1c-2.5,3.3-5.5,5.4-8.9,6.5
		c-1.5,0.5-2.8,0.8-3.8,0.7c-0.8,0-1.6-0.3-2.6-0.9c0,3.9,0,5.9,0,9.8c0,2.2,0.1,3.6,0.3,4c0.2,0.5,0.6,0.8,1.1,0.9s1.5-0.2,3-0.7
		c0,0.5,0,0.8,0,1.3c-5.7,2.2-8.3,3.8-13.5,7c0-0.5,0-0.8,0-1.3c0.3-0.2,0.4-0.2,0.7-0.4c1-0.6,1.9-1.3,2.6-2.2
		c0.3-0.5,0.6-1,0.8-1.7c0.2-0.7,0.3-2.2,0.3-4.5c0-10.4,0-20.8-0.2-31.2c-0.1-2.5-0.2-4.1-0.4-4.7c-0.2-0.6-0.4-1-0.8-1.2
		s-0.8-0.2-1.4,0.1c-0.5,0.2-1,0.6-1.7,1.4c-0.2-0.5-0.2-0.8-0.4-1.3C309.3,285.3,310.9,283.7,314.1,281z M286.5,292.9
		c0.5,10.7,0.9,18.9,0.9,27.5c0,3,0.4,4.8,1.3,5.4s1.9,0.6,3.1,0c0.8-0.4,1.7-1.2,2.7-2.4c1-1.2,2.2-3.1,3.6-5.6
		c0-7.3-0.1-10.8-0.5-21.1c-0.1-2.6-0.5-4.1-1-4.7c-0.6-0.6-1.7-0.6-3.4,0.1c0-0.7,0-1-0.1-1.6c3.5-1.4,5.2-2.2,8.7-3.7
		c0.4,9.1,0.8,15.8,0.8,23.6c0,3.7,0.1,6,0.2,6.7s0.4,1.2,0.7,1.3c0.3,0.1,0.6,0.1,1-0.1c0.6-0.3,1.2-0.9,1.9-1.8
		c0.2,0.4,0.2,0.6,0.4,1c-3,3.4-4.5,5.1-7.5,8.5c-0.5,0.3-0.7,0.4-1.2,0.7c0-2.7,0-4.1,0-6.8c-2.2,4.3-3.8,7.1-5,8.4
		c-1.2,1.4-2.4,2.4-3.7,3c-1.5,0.7-2.8,0.7-3.9,0s-1.9-1.7-2.4-3.2s-0.7-3.8-0.7-6.8c0-5.8-0.1-9.1-0.4-17.8
		c-0.1-2.3-0.3-3.8-0.6-4.6c-0.3-0.8-0.7-1.3-1.3-1.6c-0.6-0.3-1.6-0.2-3,0.2c0-0.7,0-1,0-1.6C280.9,294.8,282.8,294.2,286.5,292.9z
		 M243.4,302.8c1.8-3.1,4.1-5.2,6.9-6.1c2.8-1,5.7-1.1,8.7-0.8c5.4,0.6,9.6,1.9,12.3,7c2.4,4.4,3.7,10.4,3.7,14.5
		c0,2.9-0.7,5.9-2,8.9c-1.4,3-3.2,5.3-5.8,6.6c-2.5,1.3-5.4,1.6-8.8,0.8c-5.4-1.2-10-4.6-13.4-9.7c-2.9-4.2-4.4-8.4-4.4-12.5
		C240.7,308.7,241.6,305.9,243.4,302.8z M199.6,267.1c3-2,6.9-2.5,11.8-1.4c3,0.7,6.3,2.2,9.8,4.5c1.6,1.1,2.7,1.7,3.4,1.9
		c0.7,0.2,1.4,0.2,1.8-0.1c0.5-0.3,0.8-1.1,1.1-2.2c0.6,0.2,1,0.2,1.6,0.4c0,7.4,0.1,12.7,0.1,19.2c-0.6-0.2-1-0.3-1.6-0.5
		c-0.5-3.3-1.5-6.7-2.8-9.3c-1.4-2.6-3.3-5-5.7-6.9c-2.5-1.9-5-3.2-7.6-3.8c-2.9-0.7-5.3-0.5-7.2,0.7s-2.8,2.8-2.8,4.8
		c0,1.5,0.6,3.1,1.8,4.6c1.7,2.3,5.8,5.5,12.4,10.9c5.4,4.4,9.1,8,11.1,10.1c2,2.2,3.5,4.4,4.6,6.5c1.1,2,1.6,4.1,1.6,6
		c0,3.6-1.7,6.1-5.2,7.4c-3.4,1.3-7.9,0.9-13.2-1.1c-1.7-0.6-3.2-1.3-4.7-2c-0.9-0.4-2.7-1.5-5.3-3c-2.7-1.6-4.3-2.4-5-2.5
		c-0.7-0.2-1.2-0.1-1.6,0.1c-0.4,0.3-0.7,0.9-0.9,2c-0.6-0.1-0.9-0.2-1.5-0.3c0-6.5,0-9.8,0-16.3c0.6,0.1,0.9,0.2,1.5,0.3
		c0.7,3.6,1.6,6.4,2.8,8.4s3,3.9,5.5,5.8s5.3,3.4,8.3,4.5c3.5,1.3,6.4,1.6,8.5,0.8c2.1-0.8,3.1-2.2,3.1-4.3c0-1.2-0.4-2.5-1.2-4
		s-2-3.1-3.7-4.7c-1.1-1.1-4.2-3.7-9.1-7.7c-4.9-4.1-8.3-7-10.3-8.9s-3.5-3.8-4.5-5.7c-1-1.8-1.5-3.7-1.5-5.7
		C195.2,272,196.6,269.1,199.6,267.1z M411.5,370v67.6h-8V378H184.4v-0.1h-4.1v-38.7h-2.9l7.1-4.2l7,4.2h-2.9V370H411.5z M155,276.5
		c5.8,0.6,8.7,0.9,14.6,1.3c0,0.5,0,0.8,0,1.3c-0.3,0-0.4,0-0.7,0c-1-0.1-1.8,0.1-2.3,0.6c-0.5,0.4-0.8,1-0.8,1.7
		c0,0.9,0.4,2.3,1.1,4c3.1,6.8,4.6,10.1,7.7,16.7c2.9-7.2,4.3-10.7,7.2-17.8c0.4-1,0.6-1.9,0.6-2.8c0-0.4-0.1-0.7-0.2-1
		c-0.2-0.3-0.5-0.5-0.9-0.6c-0.4-0.2-1.1-0.2-2.1-0.3c0-0.5,0-0.8,0-1.3c4.2,0.1,6.2-0.1,10.7,0.4c0,0.5,0,0.8,0,1.3
		c-0.9,0-1.6,0.1-2.1,0.4c-0.5,0.2-1,0.7-1.6,1.5c-0.2,0.3-0.6,1.2-1.2,2.7c-4.4,10.8-8.8,21.5-13,32.4c-1.2,3.3-2.8,5.8-4.8,7.6
		c-2,1.8-3.8,2.9-5.6,3.1c-1.3,0.1-2.4-0.2-3.3-1c-0.9-0.8-1.3-1.8-1.4-2.9c0-1.1,0.3-2,0.9-2.7c0.6-0.7,1.4-1.1,2.5-1.1
		c0.7,0,1.8,0.2,3.1,0.7c0.9,0.3,1.5,0.5,1.7,0.5c0.7,0,1.4-0.5,2.2-1.3s1.6-2.3,2.4-4.5c0.9-2.4,1.3-3.5,2.2-5.8
		c-4.6-9.8-6.8-14.7-11.3-25.2c-0.3-0.8-0.9-1.8-1.6-3c-0.6-0.9-1-1.6-1.4-1.9c-0.5-0.4-1.4-0.9-2.5-1.3
		C155,277.4,155,277.1,155,276.5z M80.4,283.9c1.4-3,3.3-5.4,5.7-7.2c2.4-1.8,4.9-3,7.6-3.5c4.9-0.9,8.8,0.4,11.7,3.9
		c2.5,3,3.7,6.9,3.7,11c0,2.9-0.7,5.7-2,8.3c-1.3,2.7-3.2,4.5-5.5,5.8s-4.9,1.9-7.9,2.2c-4.8,0.5-8.7-0.2-11.7-3
		c-2.5-2.3-3.7-5.3-3.8-9.1C78.2,289.7,78.9,286.9,80.4,283.9z M64.5,409.9H225v2.6H64.5V409.9z M135.1,429.3v34.1l-21.7-11.1v-23
		H135.1z M83.9,429.3v8.2l-16-8.2H83.9z M64.5,430.5L84,440.7c0,0,0,22.6,0,30c0,4.8,0,17.7,3.4,20.6c1.8,1.6,5.8,4.4,11.3,4.4
		c8.3,0,10.5-3.8,12.9-7.1c2.6-3.5,1.4-17.4,1.4-17.4v-15.7l22,11.1c0,0,0,12.3,0,14.7c0,2.4-0.9,7.1-2,12.3
		c-1.2,5.2-5.8,11.7-11.8,15.8c-6,4.2-16.8,5.1-21.8,5.1s-35,0-35-21.4S64.5,430.5,64.5,430.5z M64.5,529.8H225v2.7H64.5V529.8z"/>
	<path style="fill:#FFFFFF;stroke:#FFFFFF;stroke-miterlimit:10;" d="M48.7,313.8c-0.6-0.1-1-0.3-1.3-0.7c-0.4-0.6-0.6-1.9-0.6-3.8
		c0-9.7-0.1-19.5,0-29.2c0-2.7,0.3-4.4,0.7-5.1s1.1-1.4,2.2-1.9c0.7-0.4,1.8-0.7,3.3-0.9V271c-7.5,0.7-11.9,0.8-19.8,0.8
		c0,0.5,0,0.8,0,1.3c0.7,0,1.1,0,1.8,0c1.8,0,3.2,0.5,4.1,1.4c0.7,0.7,1,2.5,1,5.5c0,10.2,0,20.4,0,30.5c0,2.7-0.2,4.5-0.7,5.3
		c-0.9,1.4-2.3,2.2-4.3,2.3c-0.7,0-1.1,0-1.8,0c0,0.5,0,0.8,0,1.3c6.8-0.2,13.3-1.5,19.8-3.5v-3C50.7,313.6,49.2,313.9,48.7,313.8z"
		/>
	<path style="fill:#FFFFFF;stroke:#FFFFFF;stroke-miterlimit:10;" d="M126,258.7c0.2-1.6,0.7-2.7,1.3-3.5c0.7-0.7,1.5-1.1,2.6-1
		c0.9,0,1.7,0.4,2.4,1.1c0.7,0.7,1.6,1.9,2.5,3.7c0.9,1.8,1.7,3,2.3,3.6s1.2,0.9,1.7,1c0.7,0.1,1.3-0.2,1.9-0.9
		c0.5-0.7,0.8-1.5,0.7-2.4c-0.1-1.7-0.9-3.4-2.3-5c-2.2-2.4-4.4-3.8-6.8-4.1c-2.6-0.2-4.8,0.6-6.7,2.4c-1.9,1.8-3.3,4.2-4.1,7.1
		c-0.4,1.4-0.7,2.8-0.9,4.5h5.3C125.8,261.8,125.8,259.7,126,258.7z"/>
	<path style="fill:#FFFFFF;stroke:#FFFFFF;stroke-miterlimit:10;" d="M145.8,262.4c-0.4-0.1-0.6-0.1-1.1-0.2c-0.3,1.1-0.6,2-0.8,2.8
		h2C145.9,264.2,145.8,263.3,145.8,262.4z"/>
	<path style="fill:#FFFFFF;stroke:#FFFFFF;stroke-miterlimit:10;" d="M439.9,320.8c-2.3-1.4-5.5-2.1-9.6-2.1
		c-4.4,0-7.8,0.9-10.3,2.8h-0.1v-2.4H410v7.4c3.1,0.2,6.4,0.3,9.7,0.5v-0.2c0-1.3,0.6-2.3,1.9-3s2.9-1.1,5-1.1
		c4.4,0,6.6,1.4,6.6,4.2c0,0.2,0,0.3,0,0.5c1.7,0,3.4,0,5.1,0s3.3,0,5,0c0-0.2,0-0.4,0-0.6C443.3,324.2,442.2,322.3,439.9,320.8z"/>
	<path style="fill:#FFFFFF;stroke:#FFFFFF;stroke-miterlimit:10;" d="M479.3,321.7c-1.7-2-4.8-3-9.3-3c-2.2,0-4.2,0.3-6,0.8
		s-3.3,1.2-4.3,2.1h-0.1v-2.5h-9.9v8c3.4-0.1,6.7-0.2,9.9-0.4v-0.4c0-1.1,0.5-2.1,1.5-2.7c1-0.7,2.4-1,4-1c3.3,0,5,1.1,5,3.3
		c1.7-0.2,3.4-0.3,5.1-0.5c1.8-0.2,3.5-0.5,5.2-0.7c0.3-0.4,0.6-0.7,1-1c1-0.7,2.3-1,4-1c1.5,0,2.6,0.2,3.5,0.7
		c3.5-0.7,6.7-1.4,9.7-2.2c-1.7-1.5-4.6-2.2-8.6-2.2C485.3,318.7,481.8,319.7,479.3,321.7z"/>
	<path style="fill:#FFFFFF;stroke:#FFFFFF;stroke-miterlimit:10;" d="M327.3,479h-14.8c2.1,0.5,4.6,0.8,7.5,0.8
		C322.8,479.8,325.2,479.5,327.3,479z"/>
	<path style="fill:#FFFFFF;stroke:#FFFFFF;stroke-miterlimit:10;" d="M331.6,473.3c-1.1,0.6-2.4,1-3.9,1.2v4.4
		c2.5-0.6,4.6-1.6,6.2-3h0.2v3.3h13.6V472h-14.4C332.9,472.5,332.3,472.9,331.6,473.3z"/>
	<polygon style="fill:#FFFFFF;stroke:#FFFFFF;stroke-miterlimit:10;" points="377.1,472 366.6,472 366.6,475 375.4,475 375.4,479.2 
		377.1,479.2 	"/>
	<path style="fill:#FFFFFF;stroke:#FFFFFF;stroke-miterlimit:10;" d="M407.9,475v-3H398c0,1.4,0.4,2.5,1.1,3.6V475H407.9z"/>
	<path style="fill:#FFFFFF;stroke:#FFFFFF;stroke-miterlimit:10;" d="M468.5,478v-0.8l-6.3-3c-2.3,0.3-4.7,0.5-7.2,0.5
		c-5.9,0-9.7-0.9-11.5-2.7H429c1,1.9,2.7,3.4,5.2,4.7c2.6,1.3,6,2.2,10,2.7c-0.1-1.2-0.4-2.6-0.9-4.1h0.7c1.5,1.3,2.6,2.1,3.3,2.4
		l4.4,2.1h0.1C458.6,479.8,464.2,479.2,468.5,478z"/>
	<polygon style="fill:#FFFFFF;stroke:#FFFFFF;stroke-miterlimit:10;" points="495.5,478.4 493.9,479.2 495.5,479.2 	"/>
	<path style="fill:#FFFFFF;stroke:#FFFFFF;stroke-miterlimit:10;" d="M138.1,642h-7.8c0.7,1.8,1.1,3.9,1.1,6.2c0,2-0.3,3.9-1,5.6
		h6.9c-0.4-1.5-0.7-3-0.7-4.6C136.6,646.5,137.1,644.1,138.1,642z"/>
	<path style="fill:#FFFFFF;stroke:#FFFFFF;stroke-miterlimit:10;" d="M205.6,642h-0.7c0.1,1.2,0.2,2.8,0.2,4.9v6.9h11.4l-9-9.6
		C206.6,643.3,206,642.6,205.6,642z"/>
	<path style="fill:#FFFFFF;stroke:#FFFFFF;stroke-miterlimit:10;" d="M161.5,637.2c-4,0-7.1,1-9.5,3.1c-0.2,0.2-0.4,0.4-0.6,0.6h20
		c-0.2-0.2-0.4-0.5-0.7-0.7C168.4,638.3,165.4,637.2,161.5,637.2z"/>
	<path style="fill:#FFFFFF;stroke:#FFFFFF;stroke-miterlimit:10;" d="M103.6,637.5H98v3.5h18.1c-0.3-0.2-0.5-0.4-0.8-0.6
		C112.5,638.4,108.6,637.5,103.6,637.5z"/>
	<path style="fill:#FFFFFF;stroke:#FFFFFF;stroke-miterlimit:10;" d="M184.7,642c0.8,1.9,1.3,4.1,1.3,6.4c0,1.9-0.3,3.7-0.8,5.4h9.2
		V642H184.7z"/>
	<path style="fill:#FFFFFF;stroke:#FFFFFF;stroke-miterlimit:10;" d="M459.2,637.6c-0.4,1.4-0.7,2.5-1,3.4h1
		c0.1-1.1,0.2-2.2,0.3-3.4H459.2z"/>
	<path style="fill:#FFFFFF;stroke:#FFFFFF;stroke-miterlimit:10;" d="M424.2,642h-1.4c0.1,1.7,0.1,3.3,0.1,4.8v7h7.1l-5.7-11.2
		C424.4,642.4,424.3,642.2,424.2,642z"/>
	<path style="fill:#FFFFFF;stroke:#FFFFFF;stroke-miterlimit:10;" d="M422.6,637.6c0.1,1.2,0.2,2.3,0.3,3.4h1.1
		c-0.3-0.8-0.6-2-1-3.4H422.6z"/>
	<path style="fill:#FFFFFF;stroke:#FFFFFF;stroke-miterlimit:10;" d="M98,653.8h20c1-1.6,1.4-3.4,1.4-5.5c0-2.5-0.8-4.6-2.3-6.3H98
		V653.8z"/>
	<path style="fill:#FFFFFF;stroke:#FFFFFF;stroke-miterlimit:10;" d="M380,637.2c-4,0-7.1,1-9.5,3.1c-0.2,0.2-0.4,0.4-0.6,0.6h20
		c-0.2-0.2-0.4-0.5-0.7-0.7C386.9,638.3,383.9,637.2,380,637.2z"/>
	<path style="fill:#FFFFFF;stroke:#FFFFFF;stroke-miterlimit:10;" d="M148.5,648.7c0,1.9,0.4,3.6,1.1,5.1H173c0.6-1.4,1-3.1,1-4.9
		c0-2.7-0.6-5-1.9-6.8h-21.6C149.2,643.8,148.5,646.1,148.5,648.7z"/>
	<polygon style="fill:#FFFFFF;stroke:#FFFFFF;stroke-miterlimit:10;" points="54.7,642 54.7,627 53,627 53,653.8 86.6,653.8 
		86.6,642 	"/>
	<path style="fill:#FFFFFF;stroke:#FFFFFF;stroke-miterlimit:10;" d="M55.7,641h31v-10h17.9c13.7,0,22.1,3.3,25.3,10h8.8
		c1.1-2,2.8-3.9,4.9-5.4c4.6-3.4,10.7-5.2,18.4-5.2c7.2,0,13,1.6,17.5,4.9c2.2,1.6,3.8,3.5,4.9,5.7h10.1v-10h12.2l9.3,10h13v-10
		h10.7v10h21.2v-3.5h-14.3V631h40.1v6.5h-14.4v3.5h40.2c1.2-2,3-3.8,5.2-5.3c5-3.5,11.4-5.3,19.4-5.3c4.9,0,9.1,0.4,12.4,1.3v7.7
		c-3.4-1.4-7.2-2.1-11.5-2.1c-4.7,0-8.6,1-11.5,3.1c-0.3,0.2-0.5,0.4-0.8,0.6h31.5c1.1-2,2.8-3.9,4.9-5.4c4.6-3.4,10.7-5.2,18.4-5.2
		c7.2,0,13,1.6,17.5,4.9c2.2,1.6,3.8,3.5,4.9,5.7H413v-10h16.6l4.9,10h14.7l4.9-10h16.2v10h11.5v-10h29.1v6.5h-17.7v3.5h47.4v-14
		H55.7V641z"/>
	<path style="fill:#FFFFFF;stroke:#FFFFFF;stroke-miterlimit:10;" d="M403.2,642c0.8,1.9,1.3,4.1,1.3,6.4c0,1.9-0.3,3.7-0.8,5.4h9.2
		V642H403.2z"/>
	<path style="fill:#FFFFFF;stroke:#FFFFFF;stroke-miterlimit:10;" d="M367,648.7c0,1.9,0.4,3.6,1.1,5.1h23.5c0.6-1.4,1-3.1,1-4.9
		c0-2.7-0.6-5-1.9-6.8H369C367.7,643.8,367,646.1,367,648.7z"/>
	<path style="fill:#FFFFFF;stroke:#FFFFFF;stroke-miterlimit:10;" d="M356.6,642h-32c-1.7,1.9-2.5,4.1-2.5,6.8
		c0,1.8,0.4,3.5,1.2,4.9h32.5c-0.4-1.5-0.7-3-0.7-4.6C355,646.5,355.6,644.1,356.6,642z"/>
	<path style="fill:#FFFFFF;stroke:#FFFFFF;stroke-miterlimit:10;" d="M226.6,652.5c0.4,0.4,0.8,0.9,1.2,1.3h1.3
		c-0.1-0.8-0.1-1.9-0.1-3.2V642h-12.1L226.6,652.5z"/>
	<path style="fill:#FFFFFF;stroke:#FFFFFF;stroke-miterlimit:10;" d="M459.1,642h-1.4c0,0.1-0.1,0.2-0.1,0.3l-5.6,11.5h7.1v-8.6
		C459,644.2,459.1,643.1,459.1,642z"/>
	<rect x="470.2" y="642" style="fill:#FFFFFF;stroke:#FFFFFF;stroke-miterlimit:10;" width="11.5" height="11.8"/>
	<rect x="239.7" y="642" style="fill:#FFFFFF;stroke:#FFFFFF;stroke-miterlimit:10;" width="21.2" height="11.8"/>
	<path style="fill:#FFFFFF;stroke:#FFFFFF;stroke-miterlimit:10;" d="M439.7,651.9c0.3,0.6,0.6,1.2,0.8,1.8h2.4
		c0.3-0.7,0.6-1.3,0.8-1.9l4.9-9.9h-13.8L439.7,651.9z"/>
	<path style="fill:#FFFFFF;stroke:#FFFFFF;stroke-miterlimit:10;" d="M311.8,642h-39.6v11.8h38.5c-0.4-1.4-0.6-2.8-0.6-4.4
		C310.1,646.7,310.7,644.2,311.8,642z"/>
	<polygon style="fill:#FFFFFF;stroke:#FFFFFF;stroke-miterlimit:10;" points="493.1,642 493.1,645.3 509.5,645.3 509.5,651.8 
		493.1,651.8 493.1,653.8 547,653.8 547,627 541.5,627 541.5,642 	"/>
	<path style="fill:#FFFFFF;stroke:#FFFFFF;stroke-miterlimit:10;" d="M115.2,656.7c-2.8,2.1-6.7,3.1-11.6,3.1H98v-6.1H86.6v12.5
		h17.9c8.1,0,14.6-1.6,19.5-4.9c3.1-2.1,5.2-4.6,6.4-7.6H118C117.3,654.9,116.4,655.9,115.2,656.7z"/>
	<path style="fill:#FFFFFF;stroke:#FFFFFF;stroke-miterlimit:10;" d="M170.6,657.1c-2.3,2-5.4,3-9.3,3c-3.8,0-6.9-1-9.2-3.1
		c-1.1-0.9-1.9-2-2.5-3.2h-12.3c1,3.2,3,5.9,6.1,8.2c4.5,3.3,10.4,4.9,17.6,4.9c7.4,0,13.4-1.7,18-5.1c3-2.2,5-4.9,6.1-8.1H173
		C172.5,655,171.6,656.1,170.6,657.1z"/>
	<rect x="194.3" y="653.8" style="fill:#FFFFFF;stroke:#FFFFFF;stroke-miterlimit:10;" width="10.7" height="12.5"/>
	<path style="fill:#FFFFFF;stroke:#FFFFFF;stroke-miterlimit:10;" d="M229.2,655.4h-0.1c-0.4-0.5-0.9-1.1-1.4-1.6h-11.3l11.7,12.5
		h11.5v-12.5H229C229.1,654.4,229.2,655,229.2,655.4z"/>
	<rect x="260.8" y="653.8" style="fill:#FFFFFF;stroke:#FFFFFF;stroke-miterlimit:10;" width="11.4" height="12.5"/>
	<path style="fill:#FFFFFF;stroke:#FFFFFF;stroke-miterlimit:10;" d="M316.7,662.1c4.4,3.2,10.5,4.8,18.2,4.8
		c5.9,0,10.7-0.6,14.4-1.9v-7.3c-3.7,1.5-7.7,2.3-12.2,2.3c-4.6,0-8.3-1-11.1-3c-1.3-0.9-2.2-2-2.9-3.2h-12.6
		C311.6,657.1,313.6,659.9,316.7,662.1z"/>
	<path style="fill:#FFFFFF;stroke:#FFFFFF;stroke-miterlimit:10;" d="M389,657.1c-2.3,2-5.4,3-9.3,3c-3.8,0-6.9-1-9.2-3.1
		c-1.1-0.9-1.9-2-2.5-3.2h-12.3c1,3.2,3,5.9,6.1,8.2c4.5,3.3,10.4,4.9,17.6,4.9c7.4,0,13.4-1.7,18-5.1c3-2.2,5-4.9,6.1-8.1h-12.1
		C390.9,655,390.1,656.1,389,657.1z"/>
	<rect x="412.8" y="653.8" style="fill:#FFFFFF;stroke:#FFFFFF;stroke-miterlimit:10;" width="10.2" height="12.5"/>
	<rect x="459" y="653.8" style="fill:#FFFFFF;stroke:#FFFFFF;stroke-miterlimit:10;" width="11.2" height="12.5"/>
	<path style="fill:#FFFFFF;stroke:#FFFFFF;stroke-miterlimit:10;" d="M441.7,657h-0.2c-0.2-1.1-0.6-2.1-1-3.2h-10.4l6.3,12.5h9.3
		l6.2-12.5h-9C442.5,654.7,442.1,655.8,441.7,657z"/>
	<polygon style="fill:#FFFFFF;stroke:#FFFFFF;stroke-miterlimit:10;" points="481.7,666.3 511.9,666.3 511.9,659.8 493.1,659.8 
		493.1,653.8 481.7,653.8 	"/>
	<rect x="54.7" y="623" style="fill:#FFFFFF;stroke:#FFFFFF;stroke-miterlimit:10;" width="1" height="4"/>
	<rect x="540.5" y="623" style="fill:#FFFFFF;stroke:#FFFFFF;stroke-miterlimit:10;" width="1" height="4"/>
	<rect x="86.6" y="641" style="fill:#FFFFFF;stroke:#FFFFFF;stroke-miterlimit:10;" width="11.4" height="1"/>
	<path style="fill:#FFFFFF;stroke:#FFFFFF;stroke-miterlimit:10;" d="M116.1,641c0.4,0.3,0.7,0.6,1,1h13.1c-0.1-0.3-0.3-0.7-0.4-1
		H116.1z"/>
	<path style="fill:#FFFFFF;stroke:#FFFFFF;stroke-miterlimit:10;" d="M171.4,641c0.3,0.3,0.5,0.6,0.8,1h12.5c-0.1-0.3-0.3-0.7-0.4-1
		H171.4z"/>
	<path style="fill:#FFFFFF;stroke:#FFFFFF;stroke-miterlimit:10;" d="M151.4,641h-12.8c-0.2,0.3-0.4,0.7-0.5,1h12.5
		C150.8,641.7,151.1,641.3,151.4,641z"/>
	<rect x="229" y="641" style="fill:#FFFFFF;stroke:#FFFFFF;stroke-miterlimit:10;" width="10.7" height="1"/>
	<path style="fill:#FFFFFF;stroke:#FFFFFF;stroke-miterlimit:10;" d="M194.3,641v1h10.5c0-0.3-0.1-0.6-0.1-0.8h0.1
		c0.2,0.2,0.4,0.5,0.6,0.8h11.3l-0.9-1H194.3z"/>
	<rect x="260.8" y="641" style="fill:#FFFFFF;stroke:#FFFFFF;stroke-miterlimit:10;" width="11.4" height="1"/>
	<path style="fill:#FFFFFF;stroke:#FFFFFF;stroke-miterlimit:10;" d="M312.4,641c-0.2,0.3-0.4,0.7-0.6,1h12.7c0.3-0.3,0.7-0.7,1-1
		H312.4z"/>
	<path style="fill:#FFFFFF;stroke:#FFFFFF;stroke-miterlimit:10;" d="M369.9,641h-12.8c-0.2,0.3-0.4,0.7-0.5,1H369
		C369.3,641.7,369.6,641.3,369.9,641z"/>
	<path style="fill:#FFFFFF;stroke:#FFFFFF;stroke-miterlimit:10;" d="M389.8,641c0.3,0.3,0.5,0.6,0.8,1h12.5c-0.1-0.3-0.3-0.7-0.4-1
		H389.8z"/>
	<path style="fill:#FFFFFF;stroke:#FFFFFF;stroke-miterlimit:10;" d="M423.9,641c0.1,0.4,0.2,0.7,0.4,1h10.6l-0.5-1H423.9z"/>
	<path style="fill:#FFFFFF;stroke:#FFFFFF;stroke-miterlimit:10;" d="M449.1,641l-0.5,1h9.1c0.1-0.3,0.3-0.6,0.4-1H449.1z"/>
	<path style="fill:#FFFFFF;stroke:#FFFFFF;stroke-miterlimit:10;" d="M459.2,641c0,0.3,0,0.7-0.1,1h11.1v-1H459.2z"/>
	<path style="fill:#FFFFFF;stroke:#FFFFFF;stroke-miterlimit:10;" d="M412.8,641v1h10.1c0-0.3,0-0.7-0.1-1H412.8z"/>
	<rect x="481.7" y="641" style="fill:#FFFFFF;stroke:#FFFFFF;stroke-miterlimit:10;" width="11.4" height="1"/>
</g>
</svg>
