<?xml version="1.0" encoding="utf-8"?>
<!-- Generator: Adobe Illustrator 21.0.2, SVG Export Plug-In . SVG Version: 6.00 Build 0)  -->
<svg version="1.1" id="Layer_1" xmlns="http://www.w3.org/2000/svg" xmlns:xlink="http://www.w3.org/1999/xlink" x="0px" y="0px"
	 width="113.4px" height="113.4px" viewBox="0 0 113.4 113.4" style="enable-background:new 0 0 113.4 113.4;" xml:space="preserve"
	>
<g>
	<path d="M65.2,18.3v10.3c1.9,0.6,3.6,1.3,5.3,2.2l7.3-7.3C74,21.1,69.7,19.3,65.2,18.3z"/>
	<path d="M30.9,42.9l-7.3-7.3c-2.4,3.8-4.2,8.1-5.2,12.6h10.3C29.2,46.3,30,44.6,30.9,42.9z"/>
	<path d="M42.9,30.9c1.7-0.9,3.5-1.6,5.3-2.2V18.3c-4.5,1-8.8,2.8-12.6,5.2L42.9,30.9z"/>
	<path d="M82.5,70.5l7.3,7.3c2.4-3.8,4.2-8.1,5.2-12.6H84.7C84.2,67.1,83.4,68.8,82.5,70.5z"/>
	<path d="M48.2,84.7c-1.9-0.6-3.6-1.3-5.3-2.2l-7.3,7.3c3.8,2.4,8.1,4.2,12.6,5.2V84.7z"/>
	<path d="M82.5,42.9c0.9,1.7,1.6,3.5,2.2,5.3h10.3c-1-4.5-2.8-8.8-5.2-12.6L82.5,42.9z"/>
	<path d="M28.7,65.2H18.3c1,4.5,2.8,8.8,5.2,12.6l7.3-7.3C30,68.8,29.2,67.1,28.7,65.2z"/>
	<path d="M70.5,82.5c-1.7,0.9-3.5,1.6-5.3,2.2v10.3c4.5-1,8.8-2.8,12.6-5.2L70.5,82.5z"/>
</g>
<path d="M107.5,51.7H68.8l26.1-26.1c2-2,2-5.1,0-7.1c-2-2-5.1-2-7.1,0L61.7,44.6V7.8c0-2.8-2.2-5-5-5s-5,2.2-5,5v36.9L25.6,18.5
	c-2-2-5.1-2-7.1,0c-2,2-2,5.1,0,7.1l26.1,26.1H5.9c-2.8,0-5,2.2-5,5s2.2,5,5,5h38.7L18.5,87.8c-2,2-2,5.1,0,7.1c1,1,2.3,1.5,3.5,1.5
	c1.3,0,2.6-0.5,3.5-1.5l26.1-26.1v36.9c0,2.8,2.2,5,5,5s5-2.2,5-5V68.8l26.1,26.1c1,1,2.3,1.5,3.5,1.5s2.6-0.5,3.5-1.5
	c2-2,2-5.1,0-7.1L68.8,61.7h38.7c2.8,0,5-2.2,5-5S110.3,51.7,107.5,51.7z"/>
</svg>
